<svg xmlns="http://www.w3.org/2000/svg" xmlns:xlink="http://www.w3.org/1999/xlink" width="300" zoomAndPan="magnify" viewBox="0 0 224.87999 225" height="300" preserveAspectRatio="xMidYMid meet" version="1.0"><defs><g/><clipPath id="id1"><path d="M 66.796875 114.785156 L 74.292969 114.785156 L 74.292969 121.53125 L 66.796875 121.53125 Z M 66.796875 114.785156 " clip-rule="nonzero"/></clipPath><clipPath id="id2"><path d="M 67.433594 105.359375 L 71.929688 105.359375 L 71.929688 109.855469 L 67.433594 109.855469 Z M 67.433594 105.359375 " clip-rule="nonzero"/></clipPath><clipPath id="id3"><path d="M 150 115.234375 L 157.492188 115.234375 L 157.492188 121.984375 L 150 121.984375 Z M 150 115.234375 " clip-rule="nonzero"/></clipPath><clipPath id="id4"><path d="M 152.414062 105.804688 L 156.910156 105.804688 L 156.910156 110.300781 L 152.414062 110.300781 Z M 152.414062 105.804688 " clip-rule="nonzero"/></clipPath><clipPath id="id5"><path d="M 149 127 L 155 127 L 155 133 L 149 133 Z M 149 127 " clip-rule="nonzero"/></clipPath><clipPath id="id6"><path d="M 149.804688 127.417969 L 154.273438 127.949219 L 153.742188 132.414062 L 149.277344 131.886719 Z M 149.804688 127.417969 " clip-rule="nonzero"/></clipPath><clipPath id="id7"><path d="M 149.804688 127.417969 L 154.273438 127.949219 L 153.742188 132.414062 L 149.277344 131.886719 Z M 149.804688 127.417969 " clip-rule="nonzero"/></clipPath><clipPath id="id8"><path d="M 70 127 L 75 127 L 75 133 L 70 133 Z M 70 127 " clip-rule="nonzero"/></clipPath><clipPath id="id9"><path d="M 70.125 127.988281 L 74.578125 127.347656 L 75.21875 131.800781 L 70.765625 132.441406 Z M 70.125 127.988281 " clip-rule="nonzero"/></clipPath><clipPath id="id10"><path d="M 70.125 127.988281 L 74.578125 127.347656 L 75.21875 131.800781 L 70.765625 132.441406 Z M 70.125 127.988281 " clip-rule="nonzero"/></clipPath><clipPath id="id11"><path d="M 84.066406 122 L 141 122 L 141 135.0625 L 84.066406 135.0625 Z M 84.066406 122 " clip-rule="nonzero"/></clipPath><clipPath id="id12"><path d="M 84.066406 126 L 141 126 L 141 135 L 84.066406 135 Z M 84.066406 126 " clip-rule="nonzero"/></clipPath><clipPath id="id13"><path d="M 84.066406 120 L 141 120 L 141 134 L 84.066406 134 Z M 84.066406 120 " clip-rule="nonzero"/></clipPath><clipPath id="id14"><path d="M 89 90.085938 L 138 90.085938 L 138 105 L 89 105 Z M 89 90.085938 " clip-rule="nonzero"/></clipPath></defs><path fill="#2f1600" d="M 168.730469 100.347656 C 179.519531 106.425781 179.40625 116.050781 169.792969 122.945312 C 176.335938 132.769531 173.089844 141.835938 160.832031 143.707031 C 164.175781 155.636719 157.257812 162.351562 145.605469 160.441406 C 143.28125 172.015625 134.5625 176.125 124.578125 168.785156 C 118.507812 179.582031 108.875 179.4375 101.992188 169.839844 C 92.167969 176.390625 83.089844 173.125 81.226562 160.875 C 69.289062 164.21875 62.566406 157.316406 64.496094 145.652344 C 52.914062 143.332031 48.796875 134.617188 56.152344 124.632812 C 45.355469 118.542969 45.480469 108.933594 55.085938 102.035156 C 48.542969 92.203125 51.792969 83.140625 64.050781 81.265625 C 60.707031 69.339844 67.621094 62.628906 79.277344 64.539062 C 81.589844 52.960938 90.320312 48.855469 100.300781 56.195312 C 106.378906 45.394531 115.996094 45.539062 122.894531 55.132812 C 132.730469 48.589844 141.789062 51.851562 143.664062 64.105469 C 155.597656 60.753906 162.296875 67.679688 160.386719 79.332031 C 171.972656 81.648438 176.058594 90.363281 168.730469 100.347656 " fill-opacity="1" fill-rule="nonzero"/><path fill="#ffffff" d="M 163.007812 101.730469 C 163.3125 101.902344 163.609375 102.078125 163.894531 102.257812 L 164.101562 101.925781 C 163.808594 101.746094 163.507812 101.566406 163.199219 101.390625 Z M 164.761719 102.824219 C 165.046875 103.027344 165.324219 103.230469 165.59375 103.4375 L 165.832031 103.128906 C 165.558594 102.917969 165.277344 102.710938 164.980469 102.503906 Z M 166.386719 104.09375 C 166.648438 104.328125 166.898438 104.5625 167.136719 104.800781 L 167.414062 104.527344 C 167.167969 104.28125 166.914062 104.039062 166.644531 103.804688 Z M 167.832031 105.558594 C 168.054688 105.824219 168.265625 106.09375 168.460938 106.363281 L 168.777344 106.140625 C 168.578125 105.855469 168.359375 105.578125 168.128906 105.304688 Z M 169.019531 107.226562 C 169.191406 107.523438 169.347656 107.828125 169.488281 108.132812 L 169.84375 107.972656 C 169.699219 107.65625 169.535156 107.339844 169.355469 107.03125 Z M 169.855469 109.085938 C 169.960938 109.410156 170.046875 109.738281 170.113281 110.070312 L 170.496094 109.996094 C 170.425781 109.648438 170.335938 109.304688 170.226562 108.964844 Z M 170.25 111.082031 C 170.277344 111.417969 170.28125 111.757812 170.265625 112.097656 L 170.652344 112.117188 C 170.667969 111.761719 170.664062 111.40625 170.636719 111.050781 Z M 170.15625 113.113281 C 170.101562 113.445312 170.027344 113.777344 169.933594 114.109375 L 170.308594 114.214844 C 170.40625 113.867188 170.484375 113.523438 170.542969 113.175781 Z M 169.605469 115.074219 C 169.480469 115.386719 169.339844 115.699219 169.183594 116.007812 L 169.53125 116.183594 C 169.691406 115.863281 169.839844 115.542969 169.96875 115.21875 Z M 168.675781 116.898438 C 168.5 117.183594 168.308594 117.46875 168.101562 117.75 L 168.414062 117.980469 C 168.625 117.691406 168.824219 117.398438 169.007812 117.105469 Z M 167.460938 118.554688 C 167.242188 118.8125 167.011719 119.070312 166.769531 119.320312 L 167.046875 119.589844 C 167.296875 119.332031 167.535156 119.070312 167.757812 118.808594 Z M 166.03125 120.042969 C 165.785156 120.273438 165.527344 120.5 165.257812 120.722656 L 165.507812 121.023438 C 165.78125 120.792969 166.042969 120.5625 166.296875 120.328125 Z M 164.449219 121.367188 C 164.285156 121.492188 164.117188 121.617188 163.945312 121.738281 L 163.789062 121.847656 L 163.894531 122.003906 C 163.972656 122.121094 164.046875 122.234375 164.121094 122.351562 L 164.449219 122.140625 C 164.375 122.023438 164.296875 121.90625 164.21875 121.789062 L 164.058594 121.898438 L 164.171875 122.054688 C 164.34375 121.929688 164.515625 121.804688 164.683594 121.675781 Z M 164.660156 123.234375 C 164.832031 123.535156 164.996094 123.839844 165.152344 124.140625 L 165.5 123.964844 C 165.339844 123.65625 165.171875 123.347656 164.996094 123.039062 Z M 165.597656 125.070312 C 165.738281 125.390625 165.867188 125.707031 165.984375 126.023438 L 166.351562 125.886719 C 166.230469 125.5625 166.097656 125.238281 165.953125 124.914062 Z M 166.3125 127 C 166.414062 127.335938 166.5 127.667969 166.570312 127.996094 L 166.949219 127.914062 C 166.875 127.574219 166.789062 127.234375 166.6875 126.890625 Z M 166.746094 129.003906 C 166.792969 129.351562 166.820312 129.691406 166.832031 130.027344 L 167.222656 130.011719 C 167.207031 129.664062 167.179688 129.3125 167.132812 128.953125 Z M 166.820312 131.050781 C 166.800781 131.394531 166.761719 131.730469 166.703125 132.0625 L 167.085938 132.128906 C 167.144531 131.785156 167.1875 131.433594 167.210938 131.074219 Z M 166.46875 133.054688 C 166.371094 133.382812 166.257812 133.703125 166.121094 134.011719 L 166.480469 134.167969 C 166.621094 133.84375 166.742188 133.507812 166.84375 133.167969 Z M 165.660156 134.921875 C 165.492188 135.210938 165.300781 135.492188 165.09375 135.765625 L 165.40625 136.003906 C 165.621094 135.71875 165.820312 135.421875 165.996094 135.117188 Z M 164.433594 136.542969 C 164.199219 136.785156 163.953125 137.019531 163.6875 137.242188 L 163.941406 137.539062 C 164.214844 137.308594 164.472656 137.066406 164.714844 136.8125 Z M 162.878906 137.867188 C 162.601562 138.058594 162.3125 138.242188 162.011719 138.417969 L 162.203125 138.753906 C 162.515625 138.574219 162.816406 138.386719 163.101562 138.1875 Z M 161.101562 138.890625 C 160.796875 139.035156 160.484375 139.171875 160.160156 139.300781 L 160.300781 139.664062 C 160.632812 139.53125 160.957031 139.390625 161.269531 139.242188 Z M 159.1875 139.648438 C 158.867188 139.75 158.535156 139.847656 158.199219 139.9375 L 158.296875 140.3125 C 158.644531 140.222656 158.980469 140.125 159.308594 140.019531 Z M 157.191406 140.171875 C 156.859375 140.242188 156.523438 140.304688 156.175781 140.363281 L 156.238281 140.746094 C 156.589844 140.6875 156.933594 140.625 157.273438 140.554688 Z M 156.015625 141.441406 C 156.097656 141.78125 156.171875 142.117188 156.234375 142.449219 L 156.617188 142.375 C 156.550781 142.035156 156.476562 141.695312 156.394531 141.347656 Z M 156.402344 143.464844 C 156.449219 143.8125 156.484375 144.152344 156.511719 144.492188 L 156.898438 144.460938 C 156.875 144.117188 156.835938 143.765625 156.789062 143.414062 Z M 156.554688 145.519531 C 156.558594 145.871094 156.550781 146.214844 156.527344 146.550781 L 156.917969 146.574219 C 156.941406 146.230469 156.949219 145.875 156.945312 145.519531 Z M 156.421875 147.566406 C 156.371094 147.914062 156.304688 148.246094 156.226562 148.574219 L 156.601562 148.667969 C 156.6875 148.328125 156.753906 147.980469 156.804688 147.625 Z M 155.933594 149.554688 C 155.820312 149.878906 155.6875 150.191406 155.542969 150.496094 L 155.890625 150.664062 C 156.042969 150.351562 156.179688 150.023438 156.300781 149.683594 Z M 155.046875 151.386719 C 154.863281 151.675781 154.664062 151.949219 154.449219 152.210938 L 154.75 152.457031 C 154.976562 152.183594 155.183594 151.898438 155.375 151.597656 Z M 153.757812 152.957031 C 153.511719 153.191406 153.253906 153.410156 152.980469 153.617188 L 153.214844 153.929688 C 153.5 153.714844 153.769531 153.484375 154.027344 153.242188 Z M 152.132812 154.183594 C 151.839844 154.355469 151.539062 154.511719 151.222656 154.65625 L 151.386719 155.007812 C 151.710938 154.859375 152.027344 154.695312 152.328125 154.519531 Z M 150.273438 155.03125 C 149.957031 155.140625 149.628906 155.238281 149.289062 155.324219 L 149.382812 155.703125 C 149.730469 155.613281 150.070312 155.515625 150.402344 155.402344 Z M 148.285156 155.53125 C 147.953125 155.585938 147.613281 155.632812 147.265625 155.664062 L 147.300781 156.054688 C 147.660156 156.019531 148.007812 155.972656 148.347656 155.917969 Z M 146.238281 155.730469 C 145.898438 155.742188 145.554688 155.742188 145.203125 155.734375 L 145.195312 156.121094 C 145.550781 156.132812 145.902344 156.128906 146.25 156.121094 Z M 144.171875 155.675781 C 143.835938 155.652344 143.492188 155.617188 143.144531 155.570312 L 143.097656 155.957031 C 143.449219 156.003906 143.796875 156.039062 144.140625 156.066406 Z M 142.058594 155.804688 C 141.984375 156.148438 141.90625 156.480469 141.824219 156.8125 L 142.199219 156.910156 C 142.285156 156.574219 142.367188 156.230469 142.4375 155.882812 Z M 141.539062 157.804688 C 141.4375 158.140625 141.324219 158.464844 141.207031 158.78125 L 141.570312 158.917969 C 141.691406 158.59375 141.804688 158.261719 141.910156 157.921875 Z M 140.820312 159.738281 C 140.679688 160.054688 140.53125 160.363281 140.375 160.664062 L 140.71875 160.84375 C 140.878906 160.539062 141.03125 160.222656 141.175781 159.894531 Z M 139.863281 161.558594 C 139.679688 161.851562 139.484375 162.136719 139.285156 162.40625 L 139.597656 162.636719 C 139.804688 162.359375 140.003906 162.066406 140.191406 161.761719 Z M 138.640625 163.199219 C 138.410156 163.457031 138.171875 163.703125 137.921875 163.929688 L 138.1875 164.21875 C 138.441406 163.980469 138.691406 163.726562 138.929688 163.457031 Z M 137.136719 164.578125 C 136.859375 164.785156 136.574219 164.96875 136.28125 165.136719 L 136.476562 165.476562 C 136.78125 165.300781 137.078125 165.105469 137.367188 164.894531 Z M 135.371094 165.589844 C 135.054688 165.722656 134.738281 165.835938 134.410156 165.929688 L 134.515625 166.304688 C 134.859375 166.207031 135.195312 166.085938 135.519531 165.949219 Z M 133.414062 166.152344 C 133.082031 166.207031 132.746094 166.242188 132.402344 166.257812 L 132.417969 166.644531 C 132.777344 166.628906 133.128906 166.59375 133.476562 166.535156 Z M 131.378906 166.25 C 131.042969 166.226562 130.707031 166.191406 130.363281 166.136719 L 130.300781 166.519531 C 130.65625 166.578125 131.007812 166.617188 131.355469 166.636719 Z M 129.359375 165.929688 C 129.03125 165.847656 128.703125 165.75 128.371094 165.636719 L 128.246094 166.007812 C 128.589844 166.121094 128.929688 166.222656 129.265625 166.308594 Z M 127.410156 165.273438 C 127.101562 165.144531 126.789062 165 126.476562 164.847656 L 126.304688 165.195312 C 126.625 165.355469 126.941406 165.5 127.261719 165.632812 Z M 125.5625 164.359375 C 125.269531 164.191406 124.976562 164.011719 124.679688 163.824219 L 124.46875 164.152344 C 124.769531 164.34375 125.070312 164.527344 125.371094 164.695312 Z M 123.824219 163.246094 C 123.710938 163.167969 123.59375 163.082031 123.480469 163 L 123.304688 162.871094 L 123.195312 163.0625 C 123.09375 163.242188 122.992188 163.417969 122.886719 163.59375 L 123.21875 163.792969 C 123.328125 163.617188 123.433594 163.4375 123.535156 163.25 L 123.367188 163.15625 L 123.25 163.3125 C 123.367188 163.398438 123.484375 163.480469 123.597656 163.566406 Z M 122.335938 164.46875 C 122.144531 164.761719 121.945312 165.042969 121.742188 165.3125 L 122.054688 165.542969 C 122.261719 165.269531 122.464844 164.980469 122.660156 164.683594 Z M 121.105469 166.121094 C 120.882812 166.390625 120.652344 166.644531 120.421875 166.890625 L 120.703125 167.15625 C 120.941406 166.90625 121.175781 166.644531 121.40625 166.371094 Z M 119.683594 167.609375 C 119.425781 167.84375 119.164062 168.0625 118.898438 168.269531 L 119.132812 168.578125 C 119.410156 168.367188 119.679688 168.140625 119.945312 167.898438 Z M 118.058594 168.855469 C 117.765625 169.042969 117.46875 169.210938 117.167969 169.359375 L 117.34375 169.707031 C 117.65625 169.550781 117.964844 169.375 118.269531 169.183594 Z M 116.234375 169.769531 C 115.914062 169.890625 115.585938 169.992188 115.261719 170.074219 L 115.355469 170.449219 C 115.695312 170.367188 116.035156 170.261719 116.371094 170.136719 Z M 114.257812 170.257812 C 113.921875 170.300781 113.582031 170.320312 113.242188 170.320312 L 113.242188 170.710938 C 113.597656 170.710938 113.953125 170.6875 114.304688 170.644531 Z M 112.226562 170.261719 C 111.890625 170.222656 111.554688 170.164062 111.222656 170.082031 L 111.132812 170.460938 C 111.480469 170.542969 111.832031 170.605469 112.179688 170.648438 Z M 110.242188 169.796875 C 109.925781 169.683594 109.609375 169.554688 109.292969 169.410156 L 109.128906 169.761719 C 109.457031 169.914062 109.785156 170.046875 110.113281 170.164062 Z M 108.386719 168.933594 C 108.09375 168.765625 107.804688 168.582031 107.519531 168.382812 L 107.296875 168.703125 C 107.59375 168.90625 107.890625 169.097656 108.191406 169.269531 Z M 106.695312 167.769531 C 106.433594 167.558594 106.171875 167.332031 105.914062 167.097656 L 105.652344 167.382812 C 105.914062 167.625 106.183594 167.855469 106.453125 168.070312 Z M 105.175781 166.378906 C 104.941406 166.132812 104.707031 165.878906 104.476562 165.617188 L 104.183594 165.871094 C 104.417969 166.140625 104.65625 166.398438 104.898438 166.648438 Z M 103.820312 164.820312 C 103.609375 164.550781 103.402344 164.277344 103.199219 163.992188 L 102.882812 164.21875 C 103.089844 164.507812 103.300781 164.789062 103.511719 165.058594 Z M 102.058594 164.496094 C 101.757812 164.675781 101.460938 164.847656 101.160156 165.007812 L 101.34375 165.351562 C 101.648438 165.1875 101.953125 165.015625 102.257812 164.828125 Z M 100.238281 165.476562 C 99.921875 165.625 99.605469 165.761719 99.292969 165.886719 L 99.4375 166.25 C 99.757812 166.121094 100.082031 165.980469 100.40625 165.828125 Z M 98.328125 166.242188 C 97.996094 166.347656 97.667969 166.445312 97.339844 166.527344 L 97.433594 166.902344 C 97.769531 166.820312 98.109375 166.722656 98.449219 166.609375 Z M 96.332031 166.734375 C 95.988281 166.792969 95.652344 166.832031 95.316406 166.859375 L 95.34375 167.246094 C 95.691406 167.21875 96.042969 167.179688 96.398438 167.121094 Z M 94.292969 166.886719 C 93.949219 166.878906 93.609375 166.855469 93.273438 166.8125 L 93.226562 167.199219 C 93.574219 167.242188 93.925781 167.269531 94.285156 167.277344 Z M 92.273438 166.625 C 91.941406 166.542969 91.617188 166.441406 91.300781 166.324219 L 91.160156 166.6875 C 91.492188 166.8125 91.832031 166.917969 92.179688 167.003906 Z M 90.371094 165.90625 C 90.070312 165.75 89.78125 165.574219 89.5 165.378906 L 89.277344 165.703125 C 89.570312 165.902344 89.875 166.085938 90.191406 166.25 Z M 88.691406 164.753906 C 88.441406 164.535156 88.195312 164.296875 87.960938 164.042969 L 87.675781 164.308594 C 87.917969 164.570312 88.171875 164.816406 88.4375 165.046875 Z M 87.304688 163.253906 C 87.105469 162.988281 86.914062 162.707031 86.730469 162.410156 L 86.398438 162.617188 C 86.585938 162.921875 86.785156 163.210938 86.996094 163.488281 Z M 86.222656 161.519531 C 86.070312 161.21875 85.925781 160.90625 85.789062 160.585938 L 85.429688 160.738281 C 85.570312 161.066406 85.71875 161.386719 85.878906 161.695312 Z M 85.417969 159.625 C 85.304688 159.304688 85.203125 158.980469 85.105469 158.644531 L 84.730469 158.75 C 84.832031 159.09375 84.9375 159.425781 85.050781 159.753906 Z M 84.851562 157.644531 C 84.773438 157.3125 84.707031 156.976562 84.644531 156.632812 L 84.261719 156.699219 C 84.324219 157.050781 84.394531 157.394531 84.46875 157.730469 Z M 83.898438 155.957031 C 83.558594 156.046875 83.226562 156.125 82.894531 156.195312 L 82.972656 156.574219 C 83.3125 156.503906 83.652344 156.421875 83.996094 156.332031 Z M 81.878906 156.386719 C 81.53125 156.441406 81.191406 156.484375 80.855469 156.519531 L 80.894531 156.90625 C 81.238281 156.871094 81.585938 156.824219 81.941406 156.769531 Z M 79.828125 156.589844 C 79.480469 156.605469 79.140625 156.605469 78.804688 156.59375 L 78.789062 156.984375 C 79.136719 156.996094 79.488281 156.992188 79.84375 156.980469 Z M 77.777344 156.523438 C 77.429688 156.484375 77.09375 156.429688 76.761719 156.363281 L 76.6875 156.746094 C 77.027344 156.8125 77.375 156.867188 77.734375 156.910156 Z M 75.773438 156.113281 C 75.441406 156.011719 75.121094 155.894531 74.8125 155.761719 L 74.660156 156.121094 C 74.980469 156.257812 75.316406 156.378906 75.660156 156.484375 Z M 73.898438 155.3125 C 73.601562 155.140625 73.316406 154.957031 73.042969 154.757812 L 72.8125 155.070312 C 73.097656 155.28125 73.394531 155.472656 73.707031 155.648438 Z M 72.265625 154.101562 C 72.019531 153.871094 71.785156 153.621094 71.566406 153.359375 L 71.269531 153.609375 C 71.496094 153.882812 71.738281 154.140625 71.996094 154.386719 Z M 70.964844 152.539062 C 70.78125 152.257812 70.609375 151.960938 70.453125 151.652344 L 70.105469 151.828125 C 70.269531 152.148438 70.445312 152.457031 70.636719 152.75 Z M 70.039062 150.71875 C 69.917969 150.40625 69.808594 150.082031 69.710938 149.75 L 69.339844 149.855469 C 69.4375 150.199219 69.550781 150.535156 69.675781 150.859375 Z M 69.472656 148.75 C 69.40625 148.417969 69.351562 148.082031 69.308594 147.734375 L 68.921875 147.78125 C 68.964844 148.136719 69.019531 148.484375 69.089844 148.828125 Z M 69.214844 146.710938 C 69.195312 146.371094 69.1875 146.03125 69.191406 145.679688 L 68.800781 145.679688 C 68.800781 146.035156 68.808594 146.386719 68.828125 146.730469 Z M 69.222656 144.648438 C 69.242188 144.3125 69.269531 143.96875 69.308594 143.621094 L 68.921875 143.578125 C 68.882812 143.933594 68.855469 144.28125 68.832031 144.625 Z M 69.445312 142.59375 L 69.511719 142.179688 L 69.328125 142.144531 C 69.058594 142.089844 68.796875 142.03125 68.539062 141.972656 L 68.449219 142.351562 C 68.710938 142.414062 68.980469 142.472656 69.25 142.523438 L 69.289062 142.335938 L 69.097656 142.304688 L 69.058594 142.535156 Z M 67.539062 141.710938 C 67.203125 141.613281 66.875 141.511719 66.554688 141.398438 L 66.425781 141.765625 C 66.753906 141.878906 67.089844 141.984375 67.429688 142.085938 Z M 65.589844 141.035156 C 65.265625 140.902344 64.949219 140.761719 64.648438 140.613281 L 64.476562 140.964844 C 64.789062 141.113281 65.109375 141.257812 65.441406 141.394531 Z M 63.738281 140.132812 C 63.4375 139.957031 63.148438 139.773438 62.871094 139.585938 L 62.652344 139.90625 C 62.9375 140.101562 63.234375 140.289062 63.542969 140.46875 Z M 62.050781 138.964844 C 61.785156 138.746094 61.53125 138.515625 61.292969 138.28125 L 61.019531 138.554688 C 61.265625 138.800781 61.527344 139.039062 61.804688 139.265625 Z M 60.609375 137.523438 C 60.390625 137.253906 60.191406 136.980469 60.011719 136.695312 L 59.683594 136.90625 C 59.871094 137.199219 60.078125 137.488281 60.304688 137.765625 Z M 59.511719 135.804688 C 59.363281 135.5 59.234375 135.1875 59.125 134.863281 L 58.753906 134.992188 C 58.871094 135.328125 59.003906 135.65625 59.160156 135.976562 Z M 58.851562 133.882812 C 58.78125 133.554688 58.730469 133.21875 58.699219 132.875 L 58.3125 132.910156 C 58.34375 133.269531 58.398438 133.621094 58.472656 133.964844 Z M 58.664062 131.855469 C 58.667969 131.519531 58.691406 131.179688 58.734375 130.835938 L 58.347656 130.789062 C 58.304688 131.148438 58.277344 131.5 58.273438 131.851562 Z M 58.902344 129.824219 C 58.972656 129.496094 59.058594 129.167969 59.160156 128.832031 L 58.785156 128.722656 C 58.683594 129.0625 58.59375 129.40625 58.523438 129.742188 Z M 59.496094 127.863281 C 59.617188 127.546875 59.75 127.230469 59.898438 126.914062 L 59.546875 126.75 C 59.394531 127.074219 59.257812 127.398438 59.132812 127.722656 Z M 60.363281 125.992188 C 60.523438 125.695312 60.695312 125.394531 60.878906 125.097656 L 60.546875 124.894531 C 60.359375 125.199219 60.183594 125.503906 60.019531 125.804688 Z M 61.441406 124.230469 C 61.597656 123.996094 61.761719 123.765625 61.933594 123.53125 L 62.0625 123.355469 L 61.714844 123.15625 L 61.523438 123.496094 L 61.679688 123.585938 L 61.777344 123.417969 L 61.621094 123.300781 C 61.445312 123.539062 61.277344 123.773438 61.117188 124.011719 Z M 60.832031 122.621094 C 60.535156 122.433594 60.25 122.242188 59.972656 122.046875 L 59.746094 122.363281 C 60.027344 122.5625 60.320312 122.757812 60.621094 122.953125 Z M 59.144531 121.425781 C 58.871094 121.210938 58.609375 120.988281 58.359375 120.761719 L 58.097656 121.050781 C 58.355469 121.28125 58.625 121.507812 58.902344 121.730469 Z M 57.621094 120.046875 C 57.378906 119.796875 57.148438 119.542969 56.9375 119.285156 L 56.636719 119.53125 C 56.855469 119.800781 57.089844 120.0625 57.339844 120.320312 Z M 56.316406 118.464844 C 56.117188 118.179688 55.9375 117.890625 55.773438 117.597656 L 55.433594 117.789062 C 55.601562 118.089844 55.789062 118.390625 55.996094 118.6875 Z M 55.320312 116.683594 C 55.183594 116.367188 55.066406 116.046875 54.96875 115.722656 L 54.597656 115.835938 C 54.699219 116.171875 54.820312 116.503906 54.964844 116.835938 Z M 54.734375 114.734375 C 54.675781 114.398438 54.636719 114.058594 54.617188 113.722656 L 54.230469 113.742188 C 54.246094 114.097656 54.289062 114.449219 54.351562 114.800781 Z M 54.625 112.703125 C 54.648438 112.367188 54.691406 112.027344 54.753906 111.691406 L 54.371094 111.621094 C 54.304688 111.972656 54.261719 112.324219 54.234375 112.675781 Z M 54.996094 110.699219 C 55.089844 110.378906 55.207031 110.058594 55.339844 109.738281 L 54.980469 109.589844 C 54.84375 109.921875 54.722656 110.253906 54.621094 110.585938 Z M 55.777344 108.8125 C 55.9375 108.515625 56.109375 108.21875 56.296875 107.929688 L 55.96875 107.71875 C 55.777344 108.019531 55.597656 108.324219 55.433594 108.628906 Z M 56.886719 107.085938 C 57.089844 106.816406 57.304688 106.546875 57.535156 106.285156 L 57.242188 106.027344 C 57.007812 106.300781 56.785156 106.574219 56.574219 106.851562 Z M 58.234375 105.527344 C 58.472656 105.289062 58.71875 105.050781 58.976562 104.8125 L 58.714844 104.527344 C 58.449219 104.765625 58.199219 105.007812 57.957031 105.257812 Z M 59.757812 104.140625 C 60.019531 103.921875 60.289062 103.710938 60.570312 103.5 L 60.335938 103.191406 C 60.054688 103.402344 59.777344 103.617188 59.511719 103.839844 Z M 60.660156 102.472656 C 60.476562 102.175781 60.296875 101.882812 60.132812 101.585938 L 59.792969 101.777344 C 59.960938 102.078125 60.140625 102.378906 60.332031 102.679688 Z M 59.644531 100.675781 C 59.488281 100.363281 59.34375 100.054688 59.210938 99.742188 L 58.851562 99.898438 C 58.992188 100.214844 59.136719 100.53125 59.296875 100.851562 Z M 58.832031 98.78125 C 58.710938 98.453125 58.609375 98.128906 58.515625 97.800781 L 58.140625 97.910156 C 58.234375 98.242188 58.34375 98.578125 58.464844 98.914062 Z M 58.273438 96.804688 C 58.203125 96.464844 58.148438 96.125 58.113281 95.792969 L 57.726562 95.835938 C 57.765625 96.183594 57.820312 96.53125 57.890625 96.882812 Z M 58.042969 94.769531 C 58.035156 94.425781 58.042969 94.085938 58.070312 93.75 L 57.683594 93.71875 C 57.65625 94.066406 57.644531 94.417969 57.652344 94.777344 Z M 58.210938 92.738281 C 58.273438 92.402344 58.359375 92.074219 58.460938 91.75 L 58.089844 91.632812 C 57.984375 91.96875 57.894531 92.3125 57.828125 92.664062 Z M 58.828125 90.800781 C 58.972656 90.492188 59.132812 90.191406 59.308594 89.902344 L 58.980469 89.699219 C 58.792969 90.003906 58.625 90.316406 58.476562 90.636719 Z M 59.894531 89.070312 C 60.105469 88.804688 60.328125 88.550781 60.574219 88.304688 L 60.296875 88.03125 C 60.042969 88.285156 59.808594 88.550781 59.589844 88.828125 Z M 61.328125 87.617188 C 61.585938 87.40625 61.863281 87.203125 62.148438 87.007812 L 61.933594 86.683594 C 61.632812 86.886719 61.351562 87.097656 61.082031 87.316406 Z M 63.023438 86.472656 C 63.320312 86.308594 63.625 86.152344 63.941406 86.007812 L 63.777344 85.65625 C 63.453125 85.804688 63.136719 85.964844 62.835938 86.132812 Z M 64.890625 85.609375 C 65.203125 85.492188 65.53125 85.378906 65.863281 85.273438 L 65.75 84.902344 C 65.40625 85.007812 65.074219 85.125 64.75 85.246094 Z M 66.859375 84.996094 C 67.1875 84.910156 67.523438 84.835938 67.867188 84.765625 L 67.792969 84.386719 C 67.441406 84.453125 67.097656 84.53125 66.765625 84.617188 Z M 68.886719 84.585938 L 69.132812 84.546875 L 69.074219 84.335938 C 68.984375 84.007812 68.902344 83.6875 68.824219 83.367188 L 68.445312 83.453125 C 68.523438 83.78125 68.609375 84.109375 68.699219 84.441406 L 68.886719 84.390625 L 68.859375 84.195312 L 68.828125 84.203125 Z M 68.613281 82.355469 C 68.550781 82.007812 68.5 81.667969 68.457031 81.332031 L 68.070312 81.382812 C 68.113281 81.722656 68.167969 82.070312 68.230469 82.421875 Z M 68.359375 80.304688 C 68.335938 79.957031 68.324219 79.613281 68.324219 79.277344 L 67.9375 79.273438 C 67.933594 79.621094 67.945312 79.972656 67.96875 80.332031 Z M 68.367188 78.25 C 68.394531 77.902344 68.433594 77.5625 68.488281 77.234375 L 68.105469 77.171875 C 68.046875 77.511719 68.007812 77.863281 67.976562 78.21875 Z M 68.699219 76.230469 C 68.789062 75.894531 68.890625 75.570312 69.007812 75.257812 L 68.644531 75.121094 C 68.523438 75.445312 68.414062 75.785156 68.324219 76.132812 Z M 69.417969 74.320312 C 69.574219 74.015625 69.746094 73.722656 69.933594 73.441406 L 69.609375 73.226562 C 69.414062 73.519531 69.234375 73.824219 69.074219 74.144531 Z M 70.546875 72.628906 C 70.769531 72.371094 71.003906 72.128906 71.253906 71.898438 L 70.992188 71.609375 C 70.730469 71.851562 70.480469 72.105469 70.25 72.375 Z M 72.046875 71.253906 C 72.320312 71.058594 72.605469 70.875 72.90625 70.703125 L 72.714844 70.367188 C 72.402344 70.542969 72.101562 70.734375 71.816406 70.9375 Z M 73.820312 70.25 C 74.128906 70.117188 74.449219 69.996094 74.777344 69.886719 L 74.65625 69.519531 C 74.316406 69.628906 73.984375 69.753906 73.664062 69.894531 Z M 75.765625 69.613281 C 76.09375 69.535156 76.429688 69.46875 76.773438 69.417969 L 76.714844 69.03125 C 76.359375 69.085938 76.015625 69.152344 75.679688 69.234375 Z M 77.796875 69.296875 C 78.132812 69.269531 78.476562 69.25 78.828125 69.242188 L 78.820312 68.855469 C 78.460938 68.859375 78.109375 68.878906 77.765625 68.910156 Z M 79.859375 69.25 C 80.195312 69.261719 80.539062 69.285156 80.886719 69.316406 L 80.921875 68.925781 C 80.566406 68.894531 80.214844 68.875 79.871094 68.863281 Z M 81.914062 69.429688 C 82.128906 69.460938 82.34375 69.492188 82.558594 69.527344 L 82.742188 69.558594 L 82.859375 68.992188 L 82.480469 68.910156 L 82.398438 69.296875 L 82.589844 69.335938 L 82.621094 69.144531 C 82.402344 69.105469 82.183594 69.074219 81.964844 69.042969 Z M 83.101562 67.988281 C 83.191406 67.648438 83.289062 67.320312 83.394531 66.996094 L 83.023438 66.878906 C 82.917969 67.207031 82.820312 67.542969 82.726562 67.886719 Z M 83.734375 66.023438 C 83.859375 65.699219 83.992188 65.382812 84.132812 65.074219 L 83.777344 64.914062 C 83.636719 65.230469 83.5 65.550781 83.371094 65.886719 Z M 84.589844 64.152344 C 84.757812 63.84375 84.929688 63.550781 85.113281 63.265625 L 84.785156 63.054688 C 84.597656 63.347656 84.417969 63.652344 84.25 63.96875 Z M 85.703125 62.425781 C 85.914062 62.152344 86.132812 61.890625 86.359375 61.640625 L 86.074219 61.378906 C 85.839844 61.632812 85.609375 61.90625 85.390625 62.191406 Z M 87.089844 60.925781 C 87.347656 60.699219 87.617188 60.488281 87.890625 60.292969 L 87.664062 59.976562 C 87.378906 60.175781 87.101562 60.398438 86.832031 60.636719 Z M 88.753906 59.753906 C 89.054688 59.589844 89.363281 59.445312 89.675781 59.320312 L 89.535156 58.957031 C 89.203125 59.089844 88.882812 59.242188 88.570312 59.410156 Z M 90.644531 59 C 90.972656 58.914062 91.304688 58.847656 91.644531 58.800781 L 91.589844 58.414062 C 91.234375 58.464844 90.886719 58.535156 90.546875 58.625 Z M 92.660156 58.71875 C 92.996094 58.710938 93.335938 58.71875 93.679688 58.746094 L 93.710938 58.359375 C 93.351562 58.328125 93 58.320312 92.648438 58.328125 Z M 94.695312 58.875 C 95.027344 58.933594 95.359375 59.007812 95.699219 59.097656 L 95.796875 58.722656 C 95.449219 58.628906 95.105469 58.554688 94.761719 58.492188 Z M 96.679688 59.402344 C 96.996094 59.515625 97.3125 59.640625 97.632812 59.777344 L 97.789062 59.421875 C 97.460938 59.28125 97.132812 59.152344 96.808594 59.035156 Z M 98.566406 60.21875 C 98.867188 60.371094 99.171875 60.539062 99.472656 60.714844 L 99.671875 60.378906 C 99.359375 60.199219 99.050781 60.027344 98.742188 59.871094 Z M 100.351562 61.257812 C 100.636719 61.441406 100.921875 61.636719 101.203125 61.84375 L 101.433594 61.527344 C 101.144531 61.316406 100.855469 61.121094 100.566406 60.929688 Z M 102.085938 61.234375 C 102.269531 60.933594 102.453125 60.644531 102.644531 60.363281 L 102.320312 60.144531 C 102.128906 60.429688 101.941406 60.726562 101.753906 61.03125 Z M 103.246094 59.523438 C 103.457031 59.246094 103.671875 58.980469 103.890625 58.722656 L 103.59375 58.46875 C 103.371094 58.730469 103.148438 59.003906 102.933594 59.289062 Z M 104.585938 57.960938 C 104.832031 57.710938 105.078125 57.472656 105.332031 57.25 L 105.074219 56.960938 C 104.8125 57.1875 104.558594 57.429688 104.308594 57.6875 Z M 106.125 56.605469 C 106.40625 56.398438 106.6875 56.203125 106.972656 56.03125 L 106.769531 55.699219 C 106.472656 55.878906 106.179688 56.078125 105.894531 56.292969 Z M 107.871094 55.539062 C 108.183594 55.390625 108.496094 55.257812 108.8125 55.148438 L 108.683594 54.78125 C 108.351562 54.898438 108.027344 55.03125 107.703125 55.1875 Z M 109.792969 54.863281 C 110.125 54.789062 110.460938 54.734375 110.796875 54.699219 L 110.757812 54.3125 C 110.40625 54.347656 110.054688 54.40625 109.707031 54.484375 Z M 111.816406 54.65625 C 112.152344 54.664062 112.492188 54.691406 112.832031 54.738281 L 112.882812 54.351562 C 112.53125 54.304688 112.175781 54.277344 111.824219 54.269531 Z M 113.832031 54.9375 C 114.15625 55.019531 114.484375 55.121094 114.808594 55.242188 L 114.941406 54.878906 C 114.605469 54.75 114.265625 54.644531 113.929688 54.558594 Z M 115.746094 55.644531 C 116.050781 55.789062 116.351562 55.953125 116.648438 56.132812 L 116.851562 55.796875 C 116.539062 55.613281 116.230469 55.445312 115.917969 55.292969 Z M 117.507812 56.695312 C 117.785156 56.890625 118.054688 57.097656 118.324219 57.320312 L 118.570312 57.019531 C 118.296875 56.789062 118.015625 56.578125 117.734375 56.375 Z M 119.097656 58 C 119.347656 58.230469 119.589844 58.472656 119.832031 58.726562 L 120.113281 58.457031 C 119.867188 58.199219 119.617188 57.949219 119.367188 57.714844 Z M 120.523438 59.492188 C 120.746094 59.75 120.960938 60.015625 121.175781 60.292969 L 121.484375 60.054688 C 121.265625 59.773438 121.042969 59.503906 120.820312 59.238281 Z M 122.105469 60.933594 C 122.398438 60.742188 122.691406 60.558594 122.984375 60.386719 L 122.785156 60.050781 C 122.488281 60.226562 122.191406 60.414062 121.890625 60.605469 Z M 123.886719 59.882812 C 124.195312 59.71875 124.503906 59.566406 124.8125 59.425781 L 124.648438 59.070312 C 124.335938 59.214844 124.019531 59.371094 123.703125 59.535156 Z M 125.757812 59.023438 C 126.085938 58.898438 126.40625 58.78125 126.730469 58.683594 L 126.613281 58.3125 C 126.28125 58.414062 125.953125 58.53125 125.617188 58.660156 Z M 127.722656 58.410156 C 128.0625 58.328125 128.398438 58.265625 128.730469 58.214844 L 128.671875 57.828125 C 128.328125 57.882812 127.984375 57.949219 127.632812 58.03125 Z M 129.746094 58.105469 C 130.09375 58.085938 130.433594 58.082031 130.773438 58.097656 L 130.789062 57.707031 C 130.4375 57.691406 130.082031 57.695312 129.722656 57.71875 Z M 131.789062 58.191406 C 132.128906 58.242188 132.460938 58.308594 132.785156 58.398438 L 132.886719 58.019531 C 132.546875 57.929688 132.199219 57.859375 131.84375 57.804688 Z M 133.753906 58.71875 C 134.066406 58.847656 134.375 58.992188 134.671875 59.15625 L 134.859375 58.8125 C 134.546875 58.644531 134.226562 58.492188 133.898438 58.359375 Z M 135.535156 59.699219 C 135.808594 59.898438 136.070312 60.109375 136.324219 60.339844 L 136.585938 60.054688 C 136.320312 59.8125 136.046875 59.589844 135.761719 59.382812 Z M 137.042969 61.066406 C 137.265625 61.320312 137.480469 61.585938 137.683594 61.863281 L 138 61.636719 C 137.789062 61.34375 137.566406 61.070312 137.335938 60.808594 Z M 138.25 62.71875 C 138.421875 63.007812 138.585938 63.308594 138.742188 63.621094 L 139.089844 63.449219 C 138.929688 63.128906 138.761719 62.816406 138.582031 62.519531 Z M 139.167969 64.558594 C 139.292969 64.871094 139.414062 65.191406 139.527344 65.523438 L 139.894531 65.398438 C 139.78125 65.058594 139.65625 64.730469 139.527344 64.410156 Z M 139.828125 66.507812 C 139.917969 66.835938 140 67.167969 140.074219 67.511719 L 140.457031 67.425781 C 140.378906 67.078125 140.292969 66.738281 140.203125 66.40625 Z M 140.273438 68.523438 C 140.300781 68.671875 140.324219 68.820312 140.347656 68.972656 L 140.378906 69.191406 L 140.59375 69.128906 C 140.785156 69.078125 140.972656 69.027344 141.164062 68.976562 L 141.066406 68.601562 C 140.875 68.648438 140.679688 68.699219 140.488281 68.753906 L 140.539062 68.941406 L 140.730469 68.914062 C 140.707031 68.761719 140.683594 68.609375 140.65625 68.457031 Z M 142.167969 68.746094 C 142.511719 68.675781 142.851562 68.617188 143.183594 68.566406 L 143.128906 68.183594 C 142.785156 68.234375 142.441406 68.292969 142.089844 68.367188 Z M 144.207031 68.441406 C 144.554688 68.410156 144.898438 68.390625 145.234375 68.382812 L 145.222656 67.992188 C 144.878906 68.003906 144.527344 68.023438 144.171875 68.054688 Z M 146.265625 68.390625 C 146.613281 68.410156 146.953125 68.4375 147.289062 68.480469 L 147.335938 68.09375 C 146.992188 68.050781 146.640625 68.019531 146.28125 68.003906 Z M 148.296875 68.65625 C 148.632812 68.730469 148.964844 68.820312 149.285156 68.921875 L 149.40625 68.554688 C 149.074219 68.445312 148.730469 68.351562 148.378906 68.273438 Z M 150.234375 69.292969 C 150.546875 69.433594 150.851562 69.589844 151.140625 69.761719 L 151.339844 69.429688 C 151.035156 69.25 150.722656 69.085938 150.394531 68.9375 Z M 151.980469 70.335938 C 152.25 70.546875 152.503906 70.769531 152.746094 71.007812 L 153.019531 70.730469 C 152.765625 70.480469 152.5 70.246094 152.21875 70.03125 Z M 153.425781 71.769531 C 153.636719 72.03125 153.832031 72.308594 154.011719 72.601562 L 154.34375 72.394531 C 154.152344 72.089844 153.949219 71.800781 153.730469 71.527344 Z M 154.503906 73.496094 C 154.652344 73.800781 154.785156 74.113281 154.902344 74.4375 L 155.269531 74.304688 C 155.144531 73.96875 155.007812 73.640625 154.855469 73.328125 Z M 155.214844 75.414062 C 155.300781 75.742188 155.375 76.074219 155.441406 76.417969 L 155.824219 76.347656 C 155.757812 75.992188 155.679688 75.648438 155.589844 75.3125 Z M 155.589844 77.433594 C 155.628906 77.769531 155.652344 78.113281 155.667969 78.460938 L 156.058594 78.441406 C 156.042969 78.085938 156.015625 77.734375 155.976562 77.390625 Z M 155.6875 79.492188 C 155.679688 79.828125 155.667969 80.171875 155.644531 80.523438 L 156.03125 80.550781 C 156.054688 80.191406 156.070312 79.84375 156.074219 79.496094 Z M 155.546875 81.550781 C 155.507812 81.890625 155.460938 82.230469 155.40625 82.578125 L 155.789062 82.640625 C 155.847656 82.289062 155.894531 81.941406 155.933594 81.597656 Z M 156.527344 83.050781 C 156.867188 83.136719 157.199219 83.226562 157.527344 83.324219 L 157.636719 82.949219 C 157.304688 82.851562 156.964844 82.757812 156.621094 82.675781 Z M 158.507812 83.644531 C 158.835938 83.761719 159.15625 83.886719 159.46875 84.019531 L 159.621094 83.660156 C 159.300781 83.527344 158.976562 83.398438 158.636719 83.277344 Z M 160.402344 84.453125 C 160.714844 84.609375 161.015625 84.773438 161.300781 84.945312 L 161.503906 84.613281 C 161.207031 84.433594 160.898438 84.265625 160.578125 84.105469 Z M 162.164062 85.507812 C 162.449219 85.707031 162.71875 85.917969 162.972656 86.136719 L 163.226562 85.839844 C 162.960938 85.617188 162.683594 85.398438 162.390625 85.191406 Z M 163.71875 86.835938 C 163.957031 87.085938 164.179688 87.34375 164.386719 87.609375 L 164.695312 87.371094 C 164.480469 87.09375 164.246094 86.828125 163.996094 86.566406 Z M 164.964844 88.449219 C 165.144531 88.742188 165.304688 89.039062 165.445312 89.347656 L 165.796875 89.1875 C 165.652344 88.867188 165.484375 88.550781 165.296875 88.246094 Z M 165.808594 90.300781 C 165.910156 90.621094 165.992188 90.953125 166.058594 91.285156 L 166.441406 91.214844 C 166.375 90.863281 166.289062 90.519531 166.179688 90.183594 Z M 166.1875 92.296875 C 166.210938 92.632812 166.214844 92.972656 166.203125 93.316406 L 166.59375 93.332031 C 166.605469 92.972656 166.601562 92.621094 166.574219 92.269531 Z M 166.113281 94.339844 C 166.066406 94.671875 166.003906 95.007812 165.925781 95.34375 L 166.304688 95.433594 C 166.386719 95.082031 166.449219 94.734375 166.5 94.390625 Z M 165.652344 96.332031 C 165.550781 96.65625 165.433594 96.976562 165.304688 97.304688 L 165.664062 97.449219 C 165.800781 97.113281 165.917969 96.78125 166.023438 96.453125 Z M 164.890625 98.246094 C 164.742188 98.550781 164.585938 98.855469 164.414062 99.160156 L 164.757812 99.351562 C 164.929688 99.035156 165.089844 98.726562 165.238281 98.414062 Z M 163.890625 100.050781 C 163.710938 100.339844 163.523438 100.625 163.324219 100.914062 L 163.644531 101.136719 C 163.847656 100.84375 164.039062 100.550781 164.222656 100.257812 Z M 163.890625 100.050781 " fill-opacity="1" fill-rule="nonzero"/><g clip-path="url(#id1)"><path fill="#ffe6a7" d="M 70.554688 114.808594 L 71.707031 117.019531 L 74.285156 117.375 L 72.421875 119.101562 L 72.863281 121.53125 L 70.554688 120.382812 L 68.246094 121.53125 L 68.6875 119.101562 L 66.820312 117.375 L 69.402344 117.019531 Z M 70.554688 114.808594 " fill-opacity="1" fill-rule="nonzero"/><path fill="#ffe6a7" d="M 70.539062 114.785156 L 71.691406 117 L 74.269531 117.355469 L 72.402344 119.078125 L 72.84375 121.511719 L 70.539062 120.363281 L 68.230469 121.511719 L 68.671875 119.078125 L 66.804688 117.355469 L 69.382812 117 Z M 70.539062 114.785156 " fill-opacity="1" fill-rule="nonzero"/><path fill="#ffe6a7" d="M 70.539062 114.785156 L 71.691406 117 L 74.269531 117.355469 L 72.402344 119.078125 L 72.84375 121.511719 L 70.539062 120.363281 L 68.230469 121.511719 L 68.671875 119.078125 L 66.804688 117.355469 L 69.382812 117 Z M 70.539062 114.785156 " fill-opacity="1" fill-rule="nonzero"/><path fill="#ffe6a7" d="M 70.539062 114.785156 L 71.691406 117 L 74.269531 117.355469 L 72.402344 119.078125 L 72.84375 121.511719 L 70.539062 120.363281 L 68.230469 121.511719 L 68.671875 119.078125 L 66.804688 117.355469 L 69.382812 117 Z M 70.539062 114.785156 " fill-opacity="1" fill-rule="nonzero"/></g><g clip-path="url(#id2)"><path fill="#ffe6a7" d="M 69.6875 105.375 L 70.378906 106.847656 L 71.929688 107.085938 L 70.808594 108.234375 L 71.074219 109.855469 L 69.6875 109.089844 L 68.300781 109.855469 L 68.566406 108.234375 L 67.445312 107.085938 L 68.992188 106.847656 Z M 69.6875 105.375 " fill-opacity="1" fill-rule="nonzero"/><path fill="#ffe6a7" d="M 69.675781 105.359375 L 70.371094 106.835938 L 71.917969 107.070312 L 70.796875 108.222656 L 71.0625 109.84375 L 69.675781 109.078125 L 68.289062 109.84375 L 68.554688 108.222656 L 67.433594 107.070312 L 68.984375 106.835938 Z M 69.675781 105.359375 " fill-opacity="1" fill-rule="nonzero"/><path fill="#ffe6a7" d="M 69.675781 105.359375 L 70.371094 106.835938 L 71.917969 107.070312 L 70.796875 108.222656 L 71.0625 109.84375 L 69.675781 109.078125 L 68.289062 109.84375 L 68.554688 108.222656 L 67.433594 107.070312 L 68.984375 106.835938 Z M 69.675781 105.359375 " fill-opacity="1" fill-rule="nonzero"/><path fill="#ffe6a7" d="M 69.675781 105.359375 L 70.371094 106.835938 L 71.917969 107.070312 L 70.796875 108.222656 L 71.0625 109.84375 L 69.675781 109.078125 L 68.289062 109.84375 L 68.554688 108.222656 L 67.433594 107.070312 L 68.984375 106.835938 Z M 69.675781 105.359375 " fill-opacity="1" fill-rule="nonzero"/></g><g clip-path="url(#id3)"><path fill="#ffe6a7" d="M 153.753906 115.257812 L 154.90625 117.472656 L 157.488281 117.824219 L 155.621094 119.550781 L 156.0625 121.984375 L 153.753906 120.835938 L 151.445312 121.984375 L 151.886719 119.550781 L 150.023438 117.824219 L 152.601562 117.472656 Z M 153.753906 115.257812 " fill-opacity="1" fill-rule="nonzero"/><path fill="#ffe6a7" d="M 153.738281 115.234375 L 154.890625 117.449219 L 157.46875 117.804688 L 155.605469 119.527344 L 156.042969 121.960938 L 153.738281 120.8125 L 151.429688 121.960938 L 151.871094 119.527344 L 150.003906 117.804688 L 152.582031 117.449219 Z M 153.738281 115.234375 " fill-opacity="1" fill-rule="nonzero"/><path fill="#ffe6a7" d="M 153.738281 115.234375 L 154.890625 117.449219 L 157.46875 117.804688 L 155.605469 119.527344 L 156.042969 121.960938 L 153.738281 120.8125 L 151.429688 121.960938 L 151.871094 119.527344 L 150.003906 117.804688 L 152.582031 117.449219 Z M 153.738281 115.234375 " fill-opacity="1" fill-rule="nonzero"/><path fill="#ffe6a7" d="M 153.738281 115.234375 L 154.890625 117.449219 L 157.46875 117.804688 L 155.605469 119.527344 L 156.042969 121.960938 L 153.738281 120.8125 L 151.429688 121.960938 L 151.871094 119.527344 L 150.003906 117.804688 L 152.582031 117.449219 Z M 153.738281 115.234375 " fill-opacity="1" fill-rule="nonzero"/></g><g clip-path="url(#id4)"><path fill="#ffe6a7" d="M 154.667969 105.820312 L 155.359375 107.292969 L 156.910156 107.53125 L 155.789062 108.679688 L 156.054688 110.300781 L 154.667969 109.535156 L 153.28125 110.300781 L 153.546875 108.679688 L 152.425781 107.53125 L 153.972656 107.292969 Z M 154.667969 105.820312 " fill-opacity="1" fill-rule="nonzero"/><path fill="#ffe6a7" d="M 154.65625 105.804688 L 155.351562 107.28125 L 156.898438 107.515625 L 155.777344 108.667969 L 156.042969 110.289062 L 154.65625 109.523438 L 153.269531 110.289062 L 153.535156 108.667969 L 152.414062 107.515625 L 153.964844 107.28125 Z M 154.65625 105.804688 " fill-opacity="1" fill-rule="nonzero"/><path fill="#ffe6a7" d="M 154.65625 105.804688 L 155.351562 107.28125 L 156.898438 107.515625 L 155.777344 108.667969 L 156.042969 110.289062 L 154.65625 109.523438 L 153.269531 110.289062 L 153.535156 108.667969 L 152.414062 107.515625 L 153.964844 107.28125 Z M 154.65625 105.804688 " fill-opacity="1" fill-rule="nonzero"/><path fill="#ffe6a7" d="M 154.65625 105.804688 L 155.351562 107.28125 L 156.898438 107.515625 L 155.777344 108.667969 L 156.042969 110.289062 L 154.65625 109.523438 L 153.269531 110.289062 L 153.535156 108.667969 L 152.414062 107.515625 L 153.964844 107.28125 Z M 154.65625 105.804688 " fill-opacity="1" fill-rule="nonzero"/></g><g clip-path="url(#id5)"><g clip-path="url(#id6)"><g clip-path="url(#id7)"><path fill="#ffe6a7" d="M 152.042969 127.699219 L 152.554688 129.246094 L 154.066406 129.664062 L 152.816406 130.671875 L 152.890625 132.3125 L 151.605469 131.390625 L 150.136719 131.988281 L 150.589844 130.40625 L 149.613281 129.132812 L 151.179688 129.082031 Z M 152.042969 127.699219 " fill-opacity="1" fill-rule="nonzero"/><path fill="#ffe6a7" d="M 152.035156 127.683594 L 152.546875 129.230469 L 154.058594 129.648438 L 152.808594 130.65625 L 152.882812 132.296875 L 151.597656 131.375 L 150.128906 131.972656 L 150.582031 130.394531 L 149.605469 129.121094 L 151.171875 129.066406 Z M 152.035156 127.683594 " fill-opacity="1" fill-rule="nonzero"/><path fill="#ffe6a7" d="M 152.035156 127.683594 L 152.546875 129.230469 L 154.058594 129.648438 L 152.808594 130.65625 L 152.882812 132.296875 L 151.597656 131.375 L 150.128906 131.972656 L 150.582031 130.394531 L 149.605469 129.121094 L 151.171875 129.066406 Z M 152.035156 127.683594 " fill-opacity="1" fill-rule="nonzero"/><path fill="#ffe6a7" d="M 152.035156 127.683594 L 152.546875 129.230469 L 154.058594 129.648438 L 152.808594 130.65625 L 152.882812 132.296875 L 151.597656 131.375 L 150.128906 131.972656 L 150.582031 130.394531 L 149.605469 129.121094 L 151.171875 129.066406 Z M 152.035156 127.683594 " fill-opacity="1" fill-rule="nonzero"/></g></g></g><g clip-path="url(#id8)"><g clip-path="url(#id9)"><g clip-path="url(#id10)"><path fill="#ffe6a7" d="M 72.359375 127.683594 L 73.253906 129.042969 L 74.820312 129.058594 L 73.875 130.355469 L 74.371094 131.921875 L 72.890625 131.363281 L 71.625 132.316406 L 71.65625 130.675781 L 70.382812 129.695312 L 71.882812 129.242188 Z M 72.359375 127.683594 " fill-opacity="1" fill-rule="nonzero"/><path fill="#ffe6a7" d="M 72.347656 127.667969 L 73.242188 129.03125 L 74.808594 129.042969 L 73.863281 130.34375 L 74.359375 131.910156 L 72.875 131.347656 L 71.613281 132.304688 L 71.644531 130.660156 L 70.371094 129.683594 L 71.871094 129.230469 Z M 72.347656 127.667969 " fill-opacity="1" fill-rule="nonzero"/><path fill="#ffe6a7" d="M 72.347656 127.667969 L 73.242188 129.03125 L 74.808594 129.042969 L 73.863281 130.34375 L 74.359375 131.910156 L 72.875 131.347656 L 71.613281 132.304688 L 71.644531 130.660156 L 70.371094 129.683594 L 71.871094 129.230469 Z M 72.347656 127.667969 " fill-opacity="1" fill-rule="nonzero"/><path fill="#ffe6a7" d="M 72.347656 127.667969 L 73.242188 129.03125 L 74.808594 129.042969 L 73.863281 130.34375 L 74.359375 131.910156 L 72.875 131.347656 L 71.613281 132.304688 L 71.644531 130.660156 L 70.371094 129.683594 L 71.871094 129.230469 Z M 72.347656 127.667969 " fill-opacity="1" fill-rule="nonzero"/></g></g></g><g clip-path="url(#id11)"><path fill="#ffe6a7" d="M 140.976562 128.554688 C 140.976562 132.140625 128.253906 135.046875 112.558594 135.046875 C 96.863281 135.046875 84.136719 132.140625 84.136719 128.554688 C 84.136719 124.96875 96.863281 122.058594 112.558594 122.058594 C 128.253906 122.058594 140.976562 124.96875 140.976562 128.554688 " fill-opacity="1" fill-rule="nonzero"/></g><g clip-path="url(#id12)"><path fill="#ffe6a7" d="M 84.136719 127.023438 L 84.136719 128.84375 L 117.453125 134.390625 L 140.976562 128.902344 L 140.976562 126.75 L 84.136719 127.023438 " fill-opacity="1" fill-rule="nonzero"/></g><g clip-path="url(#id13)"><path fill="#432818" d="M 140.976562 127.023438 C 140.976562 130.609375 128.253906 133.515625 112.558594 133.515625 C 96.863281 133.515625 84.136719 130.609375 84.136719 127.023438 C 84.136719 123.433594 96.863281 120.527344 112.558594 120.527344 C 128.253906 120.527344 140.976562 123.433594 140.976562 127.023438 " fill-opacity="1" fill-rule="nonzero"/></g><g clip-path="url(#id14)"><path fill="#ffe6a7" d="M 89.582031 104.144531 L 120.878906 90.082031 C 120.878906 90.082031 125.402344 90.332031 131.613281 95.890625 C 137.820312 101.449219 136.964844 104.144531 136.964844 104.144531 L 89.582031 104.144531 " fill-opacity="1" fill-rule="nonzero"/></g><path fill="#99582a" d="M 135.515625 128.929688 L 89.601562 128.929688 L 89.601562 122.890625 L 135.515625 122.890625 L 135.515625 128.929688 " fill-opacity="1" fill-rule="nonzero"/><path fill="#ffe6a7" d="M 135.5 122.824219 L 89.585938 122.824219 L 89.585938 120.542969 L 135.5 120.542969 L 135.5 122.824219 " fill-opacity="1" fill-rule="nonzero"/><path fill="#ffe6a7" d="M 135.5 128.929688 L 135.5 103.640625 L 137.074219 103.640625 L 137.074219 128.929688 L 135.5 128.929688 " fill-opacity="1" fill-rule="nonzero"/><path fill="#ffe6a7" d="M 135.5 114.644531 L 89.585938 114.644531 L 89.585938 112.363281 L 135.5 112.363281 L 135.5 114.644531 " fill-opacity="1" fill-rule="nonzero"/><path fill="#ffe6a7" d="M 135.5 106.464844 L 89.585938 106.464844 L 89.585938 104.183594 L 135.5 104.183594 L 135.5 106.464844 " fill-opacity="1" fill-rule="nonzero"/><path fill="#99582a" d="M 135.515625 120.59375 L 89.601562 120.59375 L 89.601562 114.558594 L 135.515625 114.558594 L 135.515625 120.59375 " fill-opacity="1" fill-rule="nonzero"/><path fill="#99582a" d="M 135.515625 112.414062 L 89.601562 112.414062 L 89.601562 106.375 L 135.515625 106.375 L 135.515625 112.414062 " fill-opacity="1" fill-rule="nonzero"/><path fill="#6f1d1b" d="M 135.5 106.617188 L 89.585938 106.617188 L 89.585938 105.855469 L 135.5 105.855469 L 135.5 106.617188 " fill-opacity="1" fill-rule="nonzero"/><path fill="#6f1d1b" d="M 135.5 114.796875 L 89.585938 114.796875 L 89.585938 114.035156 L 135.5 114.035156 L 135.5 114.796875 " fill-opacity="1" fill-rule="nonzero"/><path fill="#6f1d1b" d="M 135.5 122.976562 L 89.585938 122.976562 L 89.585938 122.214844 L 135.5 122.214844 L 135.5 122.976562 " fill-opacity="1" fill-rule="nonzero"/><path fill="#6f1d1b" d="M 135.515625 128.929688 L 135.515625 105.855469 L 136.277344 105.855469 L 136.277344 128.929688 L 135.515625 128.929688 " fill-opacity="1" fill-rule="nonzero"/><path fill="#99582a" d="M 123.011719 93.539062 C 123.011719 94.132812 122.53125 94.613281 121.9375 94.613281 C 121.34375 94.613281 120.863281 94.132812 120.863281 93.539062 C 120.863281 92.949219 121.34375 92.46875 121.9375 92.46875 C 122.53125 92.46875 123.011719 92.949219 123.011719 93.539062 " fill-opacity="1" fill-rule="nonzero"/><path fill="#99582a" d="M 118.378906 93.539062 C 118.378906 94.132812 117.894531 94.613281 117.304688 94.613281 C 116.710938 94.613281 116.230469 94.132812 116.230469 93.539062 C 116.230469 92.949219 116.710938 92.46875 117.304688 92.46875 C 117.894531 92.46875 118.378906 92.949219 118.378906 93.539062 " fill-opacity="1" fill-rule="nonzero"/><path fill="#99582a" d="M 115.289062 96.628906 C 115.289062 97.21875 114.808594 97.699219 114.214844 97.699219 C 113.621094 97.699219 113.140625 97.21875 113.140625 96.628906 C 113.140625 96.035156 113.621094 95.554688 114.214844 95.554688 C 114.808594 95.554688 115.289062 96.035156 115.289062 96.628906 " fill-opacity="1" fill-rule="nonzero"/><path fill="#99582a" d="M 110.652344 97.089844 C 110.652344 97.683594 110.171875 98.164062 109.582031 98.164062 C 108.988281 98.164062 108.507812 97.683594 108.507812 97.089844 C 108.507812 96.5 108.988281 96.019531 109.582031 96.019531 C 110.171875 96.019531 110.652344 96.5 110.652344 97.089844 " fill-opacity="1" fill-rule="nonzero"/><path fill="#99582a" d="M 104.011719 100.484375 C 104.011719 101.078125 103.53125 101.558594 102.9375 101.558594 C 102.347656 101.558594 101.867188 101.078125 101.867188 100.484375 C 101.867188 99.894531 102.347656 99.414062 102.9375 99.414062 C 103.53125 99.414062 104.011719 99.894531 104.011719 100.484375 " fill-opacity="1" fill-rule="nonzero"/><path fill="#99582a" d="M 99.070312 102.800781 C 99.070312 103.394531 98.589844 103.875 97.996094 103.875 C 97.402344 103.875 96.921875 103.394531 96.921875 102.800781 C 96.921875 102.207031 97.402344 101.726562 97.996094 101.726562 C 98.589844 101.726562 99.070312 102.207031 99.070312 102.800781 " fill-opacity="1" fill-rule="nonzero"/><path fill="#99582a" d="M 121.15625 97.398438 C 121.15625 97.992188 120.675781 98.472656 120.082031 98.472656 C 119.492188 98.472656 119.011719 97.992188 119.011719 97.398438 C 119.011719 96.808594 119.492188 96.328125 120.082031 96.328125 C 120.675781 96.328125 121.15625 96.808594 121.15625 97.398438 " fill-opacity="1" fill-rule="nonzero"/><path fill="#99582a" d="M 128.570312 96.320312 C 128.570312 96.910156 128.089844 97.390625 127.496094 97.390625 C 126.90625 97.390625 126.425781 96.910156 126.425781 96.320312 C 126.425781 95.726562 126.90625 95.246094 127.496094 95.246094 C 128.089844 95.246094 128.570312 95.726562 128.570312 96.320312 " fill-opacity="1" fill-rule="nonzero"/><path fill="#99582a" d="M 131.660156 99.40625 C 131.660156 99.996094 131.179688 100.480469 130.585938 100.480469 C 129.992188 100.480469 129.511719 99.996094 129.511719 99.40625 C 129.511719 98.8125 129.992188 98.332031 130.585938 98.332031 C 131.179688 98.332031 131.660156 98.8125 131.660156 99.40625 " fill-opacity="1" fill-rule="nonzero"/><path fill="#99582a" d="M 126.101562 100.484375 C 126.101562 101.078125 125.617188 101.558594 125.027344 101.558594 C 124.433594 101.558594 123.953125 101.078125 123.953125 100.484375 C 123.953125 99.894531 124.433594 99.414062 125.027344 99.414062 C 125.617188 99.414062 126.101562 99.894531 126.101562 100.484375 " fill-opacity="1" fill-rule="nonzero"/><path fill="#99582a" d="M 120.074219 101.410156 C 120.074219 102.003906 119.59375 102.484375 119.003906 102.484375 C 118.410156 102.484375 117.929688 102.003906 117.929688 101.410156 C 117.929688 100.820312 118.410156 100.339844 119.003906 100.339844 C 119.59375 100.339844 120.074219 100.820312 120.074219 101.410156 " fill-opacity="1" fill-rule="nonzero"/><path fill="#99582a" d="M 114.980469 101.410156 C 114.980469 102.003906 114.5 102.484375 113.90625 102.484375 C 113.3125 102.484375 112.832031 102.003906 112.832031 101.410156 C 112.832031 100.820312 113.3125 100.339844 113.90625 100.339844 C 114.5 100.339844 114.980469 100.820312 114.980469 101.410156 " fill-opacity="1" fill-rule="nonzero"/><path fill="#99582a" d="M 109.726562 101.257812 C 109.726562 101.851562 109.246094 102.332031 108.652344 102.332031 C 108.0625 102.332031 107.582031 101.851562 107.582031 101.257812 C 107.582031 100.664062 108.0625 100.183594 108.652344 100.183594 C 109.246094 100.183594 109.726562 100.664062 109.726562 101.257812 " fill-opacity="1" fill-rule="nonzero"/><g fill="#ffe6a7" fill-opacity="1"><g transform="translate(74.396281, 95.795878)"><g><path d="M 3.296875 -3.21875 C 3.085938 -3.007812 2.832031 -2.773438 2.53125 -2.515625 C 2.414062 -2.421875 2.273438 -2.296875 2.109375 -2.140625 C 1.953125 -1.984375 1.773438 -1.8125 1.578125 -1.625 L 0.859375 -0.890625 C 0.734375 -0.742188 0.554688 -0.554688 0.328125 -0.328125 C 0.316406 -0.316406 0.289062 -0.332031 0.25 -0.375 C 0.207031 -0.414062 0.191406 -0.441406 0.203125 -0.453125 C 0.429688 -0.679688 0.582031 -0.863281 0.65625 -1 C 0.726562 -1.144531 0.734375 -1.285156 0.671875 -1.421875 C 0.617188 -1.566406 0.488281 -1.742188 0.28125 -1.953125 L -4.46875 -6.671875 C -4.675781 -6.878906 -4.847656 -7.007812 -4.984375 -7.0625 C -5.117188 -7.125 -5.257812 -7.117188 -5.40625 -7.046875 C -5.550781 -6.972656 -5.734375 -6.828125 -5.953125 -6.609375 C -5.972656 -6.597656 -6.003906 -6.609375 -6.046875 -6.640625 C -6.085938 -6.679688 -6.097656 -6.707031 -6.078125 -6.71875 L -5.53125 -7.265625 C -5.21875 -7.554688 -4.972656 -7.789062 -4.796875 -7.96875 C -4.523438 -8.238281 -4.257812 -8.519531 -4 -8.8125 C -3.664062 -9.175781 -3.441406 -9.414062 -3.328125 -9.53125 C -2.640625 -10.226562 -1.890625 -10.707031 -1.078125 -10.96875 C -0.265625 -11.238281 0.519531 -11.285156 1.28125 -11.109375 C 2.050781 -10.941406 2.734375 -10.566406 3.328125 -9.984375 C 3.984375 -9.328125 4.414062 -8.585938 4.625 -7.765625 C 4.84375 -6.953125 4.828125 -6.144531 4.578125 -5.34375 C 4.335938 -4.550781 3.910156 -3.84375 3.296875 -3.21875 Z M 2.984375 -3.34375 C 3.441406 -3.800781 3.742188 -4.328125 3.890625 -4.921875 C 4.035156 -5.515625 3.984375 -6.128906 3.734375 -6.765625 C 3.492188 -7.410156 3.066406 -8.039062 2.453125 -8.65625 C 1.859375 -9.238281 1.226562 -9.671875 0.5625 -9.953125 C -0.101562 -10.234375 -0.75 -10.332031 -1.375 -10.25 C -2.007812 -10.175781 -2.5625 -9.898438 -3.03125 -9.421875 C -3.3125 -9.140625 -3.507812 -8.898438 -3.625 -8.703125 C -3.75 -8.515625 -3.800781 -8.335938 -3.78125 -8.171875 C -3.757812 -8.003906 -3.65625 -7.828125 -3.46875 -7.640625 L 1.15625 -3.046875 C 1.4375 -2.765625 1.703125 -2.632812 1.953125 -2.65625 C 2.210938 -2.6875 2.554688 -2.914062 2.984375 -3.34375 Z M 2.984375 -3.34375 "/></g></g></g><g fill="#ffe6a7" fill-opacity="1"><g transform="translate(83.532879, 87.250111)"><g><path d="M 4.078125 -3.78125 C 4.085938 -3.789062 4.113281 -3.789062 4.15625 -3.78125 C 4.207031 -3.769531 4.226562 -3.742188 4.21875 -3.703125 C 4.101562 -3.242188 3.9375 -2.851562 3.71875 -2.53125 C 3.5 -2.207031 3.21875 -1.929688 2.875 -1.703125 C 2.382812 -1.378906 1.882812 -1.207031 1.375 -1.1875 C 0.875 -1.164062 0.414062 -1.269531 0 -1.5 C -0.425781 -1.726562 -0.773438 -2.046875 -1.046875 -2.453125 C -1.359375 -2.921875 -1.53125 -3.425781 -1.5625 -3.96875 C -1.59375 -4.519531 -1.476562 -5.046875 -1.21875 -5.546875 C -0.96875 -6.046875 -0.59375 -6.460938 -0.09375 -6.796875 C 0.394531 -7.117188 0.847656 -7.25 1.265625 -7.1875 C 1.691406 -7.125 2.054688 -6.867188 2.359375 -6.421875 C 2.503906 -6.179688 2.523438 -6.03125 2.421875 -5.96875 L -0.5 -4 C -0.457031 -3.925781 -0.390625 -3.820312 -0.296875 -3.6875 C 0.171875 -2.96875 0.703125 -2.507812 1.296875 -2.3125 C 1.898438 -2.113281 2.503906 -2.21875 3.109375 -2.625 C 3.335938 -2.769531 3.507812 -2.921875 3.625 -3.078125 C 3.75 -3.234375 3.894531 -3.460938 4.0625 -3.765625 Z M -0.375 -6.265625 C -0.664062 -6.078125 -0.832031 -5.800781 -0.875 -5.4375 C -0.914062 -5.082031 -0.828125 -4.6875 -0.609375 -4.25 L 1.28125 -5.546875 C 0.707031 -6.378906 0.15625 -6.617188 -0.375 -6.265625 Z M -0.375 -6.265625 "/></g></g></g><g fill="#ffe6a7" fill-opacity="1"><g transform="translate(90.875043, 82.717345)"><g><path d="M 0.484375 -0.21875 C 0.460938 -0.21875 0.4375 -0.242188 0.40625 -0.296875 C 0.382812 -0.347656 0.382812 -0.375 0.40625 -0.375 C 0.695312 -0.519531 0.863281 -0.675781 0.90625 -0.84375 C 0.957031 -1.019531 0.898438 -1.285156 0.734375 -1.640625 L -2.40625 -8.34375 C -2.539062 -8.644531 -2.671875 -8.847656 -2.796875 -8.953125 C -2.921875 -9.066406 -3.0625 -9.085938 -3.21875 -9.015625 C -3.34375 -8.953125 -3.488281 -8.820312 -3.65625 -8.625 L -3.671875 -8.625 C -3.703125 -8.613281 -3.734375 -8.625 -3.765625 -8.65625 C -3.804688 -8.6875 -3.828125 -8.710938 -3.828125 -8.734375 L -2.375 -10.46875 L -2.328125 -10.515625 C -2.296875 -10.523438 -2.242188 -10.523438 -2.171875 -10.515625 C -2.109375 -10.503906 -2.070312 -10.488281 -2.0625 -10.46875 L 1.828125 -2.15625 C 1.992188 -1.800781 2.148438 -1.582031 2.296875 -1.5 C 2.453125 -1.414062 2.679688 -1.445312 2.984375 -1.59375 C 3.003906 -1.601562 3.023438 -1.582031 3.046875 -1.53125 C 3.078125 -1.476562 3.082031 -1.445312 3.0625 -1.4375 C 2.851562 -1.332031 2.679688 -1.253906 2.546875 -1.203125 L 1.75 -0.859375 L 1 -0.484375 C 0.875 -0.410156 0.703125 -0.320312 0.484375 -0.21875 Z M 0.484375 -0.21875 "/></g></g></g><g fill="#ffe6a7" fill-opacity="1"><g transform="translate(96.871914, 80.100794)"><g><path d="M -0.25 -7.125 C -0.25 -7.113281 -0.265625 -7.101562 -0.296875 -7.09375 C -0.328125 -7.082031 -0.351562 -7.078125 -0.375 -7.078125 C -0.394531 -7.078125 -0.40625 -7.085938 -0.40625 -7.109375 L -0.9375 -10.59375 C -0.925781 -10.625 -0.800781 -10.707031 -0.5625 -10.84375 C -0.332031 -10.988281 -0.128906 -11.085938 0.046875 -11.140625 C 0.148438 -11.171875 0.203125 -11.164062 0.203125 -11.125 Z M 0.609375 -0.203125 C 0.578125 -0.191406 0.550781 -0.210938 0.53125 -0.265625 C 0.519531 -0.316406 0.53125 -0.347656 0.5625 -0.359375 C 0.875 -0.453125 1.0625 -0.578125 1.125 -0.734375 C 1.1875 -0.898438 1.15625 -1.171875 1.03125 -1.546875 L 0.234375 -4.0625 C 0.128906 -4.375 0.0195312 -4.585938 -0.09375 -4.703125 C -0.207031 -4.828125 -0.34375 -4.867188 -0.5 -4.828125 C -0.632812 -4.773438 -0.789062 -4.664062 -0.96875 -4.5 L -0.984375 -4.484375 C -1.023438 -4.472656 -1.0625 -4.488281 -1.09375 -4.53125 C -1.132812 -4.570312 -1.144531 -4.601562 -1.125 -4.625 L 0.578125 -6.203125 L 0.609375 -6.21875 C 0.640625 -6.21875 0.679688 -6.207031 0.734375 -6.1875 C 0.796875 -6.164062 0.832031 -6.140625 0.84375 -6.109375 L 0.9375 -5.828125 C 1.039062 -5.441406 1.175781 -4.984375 1.34375 -4.453125 L 2.15625 -1.921875 C 2.28125 -1.546875 2.414062 -1.304688 2.5625 -1.203125 C 2.707031 -1.109375 2.9375 -1.113281 3.25 -1.21875 C 3.269531 -1.21875 3.285156 -1.191406 3.296875 -1.140625 C 3.316406 -1.085938 3.316406 -1.0625 3.296875 -1.0625 C 3.066406 -0.976562 2.878906 -0.921875 2.734375 -0.890625 L 1.9375 -0.65625 L 1.140625 -0.375 C 1.015625 -0.332031 0.835938 -0.273438 0.609375 -0.203125 Z M 0.609375 -0.203125 "/></g></g></g><g fill="#ffe6a7" fill-opacity="1"><g transform="translate(103.071998, 78.230704)"><g><path d="M 3.359375 -0.375 C 2.742188 -0.269531 2.191406 -0.316406 1.703125 -0.515625 C 1.222656 -0.710938 0.847656 -1.007812 0.578125 -1.40625 C 0.304688 -1.8125 0.128906 -2.253906 0.046875 -2.734375 C -0.046875 -3.335938 0.0234375 -3.890625 0.265625 -4.390625 C 0.515625 -4.898438 0.875 -5.316406 1.34375 -5.640625 C 1.8125 -5.960938 2.3125 -6.164062 2.84375 -6.25 C 3.28125 -6.320312 3.695312 -6.300781 4.09375 -6.1875 C 4.488281 -6.070312 4.707031 -5.859375 4.75 -5.546875 C 4.78125 -5.390625 4.742188 -5.238281 4.640625 -5.09375 C 4.546875 -4.957031 4.382812 -4.867188 4.15625 -4.828125 C 3.789062 -4.773438 3.492188 -4.945312 3.265625 -5.34375 C 3.128906 -5.570312 3 -5.722656 2.875 -5.796875 C 2.757812 -5.878906 2.585938 -5.90625 2.359375 -5.875 C 1.910156 -5.800781 1.585938 -5.539062 1.390625 -5.09375 C 1.191406 -4.644531 1.144531 -4.082031 1.25 -3.40625 C 1.382812 -2.613281 1.675781 -2.003906 2.125 -1.578125 C 2.570312 -1.148438 3.1875 -1 3.96875 -1.125 C 4.226562 -1.175781 4.457031 -1.25 4.65625 -1.34375 C 4.863281 -1.4375 5.078125 -1.578125 5.296875 -1.765625 L 5.3125 -1.765625 C 5.34375 -1.773438 5.375 -1.765625 5.40625 -1.734375 C 5.4375 -1.710938 5.441406 -1.6875 5.421875 -1.65625 C 5.117188 -1.300781 4.8125 -1.015625 4.5 -0.796875 C 4.1875 -0.585938 3.804688 -0.445312 3.359375 -0.375 Z M 3.359375 -0.375 "/></g></g></g><g fill="#ffe6a7" fill-opacity="1"><g transform="translate(111.695558, 77.097733)"><g><path d="M 1.859375 -7.28125 C 1.609375 -7.269531 1.410156 -7.332031 1.265625 -7.46875 C 1.128906 -7.601562 1.0625 -7.796875 1.0625 -8.046875 C 1.050781 -8.296875 1.113281 -8.484375 1.25 -8.609375 C 1.394531 -8.742188 1.59375 -8.816406 1.84375 -8.828125 C 2.082031 -8.828125 2.269531 -8.765625 2.40625 -8.640625 C 2.539062 -8.515625 2.613281 -8.328125 2.625 -8.078125 C 2.625 -7.828125 2.554688 -7.628906 2.421875 -7.484375 C 2.296875 -7.347656 2.109375 -7.28125 1.859375 -7.28125 Z M 0.640625 -0.015625 C 0.609375 -0.015625 0.59375 -0.0390625 0.59375 -0.09375 C 0.59375 -0.15625 0.609375 -0.1875 0.640625 -0.1875 C 0.960938 -0.1875 1.175781 -0.253906 1.28125 -0.390625 C 1.382812 -0.523438 1.4375 -0.789062 1.4375 -1.1875 L 1.390625 -3.828125 C 1.390625 -4.148438 1.351562 -4.382812 1.28125 -4.53125 C 1.21875 -4.6875 1.101562 -4.765625 0.9375 -4.765625 C 0.789062 -4.765625 0.601562 -4.703125 0.375 -4.578125 L 0.359375 -4.578125 C 0.316406 -4.578125 0.285156 -4.597656 0.265625 -4.640625 C 0.242188 -4.691406 0.25 -4.726562 0.28125 -4.75 L 2.359375 -5.75 L 2.40625 -5.765625 C 2.4375 -5.765625 2.472656 -5.742188 2.515625 -5.703125 C 2.566406 -5.660156 2.59375 -5.625 2.59375 -5.59375 L 2.59375 -5.296875 C 2.582031 -4.890625 2.578125 -4.410156 2.578125 -3.859375 L 2.625 -1.203125 C 2.625 -0.804688 2.679688 -0.539062 2.796875 -0.40625 C 2.910156 -0.28125 3.132812 -0.21875 3.46875 -0.21875 C 3.488281 -0.21875 3.5 -0.1875 3.5 -0.125 C 3.5 -0.0703125 3.488281 -0.046875 3.46875 -0.046875 C 3.21875 -0.046875 3.019531 -0.0507812 2.875 -0.0625 L 2.046875 -0.0625 L 1.203125 -0.03125 C 1.066406 -0.0195312 0.878906 -0.015625 0.640625 -0.015625 Z M 0.640625 -0.015625 "/></g></g></g><g fill="#ffe6a7" fill-opacity="1"><g transform="translate(118.171446, 77.114735)"><g><path d="M 6.109375 0.015625 C 6.148438 0.0234375 6.171875 0.0507812 6.171875 0.09375 C 6.179688 0.132812 6.160156 0.164062 6.109375 0.1875 L 4.53125 0.703125 C 4.488281 0.710938 4.445312 0.710938 4.40625 0.703125 C 4.269531 0.679688 4.144531 0.578125 4.03125 0.390625 C 3.925781 0.210938 3.875 -0.0195312 3.875 -0.3125 L 3.140625 0.078125 C 2.890625 0.210938 2.664062 0.296875 2.46875 0.328125 C 2.28125 0.367188 2.070312 0.375 1.84375 0.34375 C 1.445312 0.289062 1.160156 0.160156 0.984375 -0.046875 C 0.804688 -0.265625 0.738281 -0.519531 0.78125 -0.8125 C 0.8125 -1.070312 0.90625 -1.273438 1.0625 -1.421875 C 1.21875 -1.578125 1.410156 -1.6875 1.640625 -1.75 C 1.867188 -1.820312 2.207031 -1.910156 2.65625 -2.015625 L 4.109375 -2.34375 L 4.234375 -3.203125 C 4.304688 -3.796875 4.300781 -4.234375 4.21875 -4.515625 C 4.132812 -4.804688 3.960938 -4.96875 3.703125 -5 C 3.390625 -5.039062 3.144531 -4.953125 2.96875 -4.734375 C 2.800781 -4.523438 2.691406 -4.28125 2.640625 -4 C 2.503906 -3.519531 2.21875 -3.3125 1.78125 -3.375 C 1.570312 -3.394531 1.425781 -3.460938 1.34375 -3.578125 C 1.257812 -3.691406 1.226562 -3.816406 1.25 -3.953125 C 1.28125 -4.210938 1.472656 -4.453125 1.828125 -4.671875 C 2.191406 -4.890625 2.609375 -5.046875 3.078125 -5.140625 C 3.554688 -5.234375 3.96875 -5.257812 4.3125 -5.21875 C 4.726562 -5.15625 5.035156 -4.976562 5.234375 -4.6875 C 5.441406 -4.394531 5.507812 -3.992188 5.4375 -3.484375 L 5.09375 -0.890625 C 5.050781 -0.585938 5.070312 -0.359375 5.15625 -0.203125 C 5.238281 -0.046875 5.367188 0.046875 5.546875 0.078125 C 5.691406 0.0976562 5.875 0.078125 6.09375 0.015625 Z M 3.875 -0.53125 L 3.890625 -0.671875 L 4.078125 -2.109375 L 3.15625 -1.859375 C 2.90625 -1.796875 2.691406 -1.707031 2.515625 -1.59375 C 2.347656 -1.488281 2.25 -1.316406 2.21875 -1.078125 C 2.1875 -0.847656 2.234375 -0.65625 2.359375 -0.5 C 2.484375 -0.34375 2.648438 -0.25 2.859375 -0.21875 C 3.035156 -0.195312 3.226562 -0.226562 3.4375 -0.3125 Z M 3.875 -0.53125 "/></g></g></g><g fill="#ffe6a7" fill-opacity="1"><g transform="translate(126.718294, 78.51151)"><g><path d="M 2.953125 -4.171875 C 2.859375 -3.878906 2.878906 -3.609375 3.015625 -3.359375 C 3.160156 -3.109375 3.390625 -2.820312 3.703125 -2.5 C 3.984375 -2.207031 4.195312 -1.972656 4.34375 -1.796875 C 4.488281 -1.628906 4.59375 -1.421875 4.65625 -1.171875 C 4.726562 -0.921875 4.722656 -0.648438 4.640625 -0.359375 C 4.546875 -0.0546875 4.382812 0.203125 4.15625 0.421875 C 3.925781 0.648438 3.625 0.800781 3.25 0.875 C 2.882812 0.945312 2.492188 0.921875 2.078125 0.796875 C 1.566406 0.640625 1.140625 0.367188 0.796875 -0.015625 C 0.753906 -0.0859375 0.742188 -0.15625 0.765625 -0.21875 L 1.109375 -1.484375 C 1.117188 -1.515625 1.148438 -1.523438 1.203125 -1.515625 C 1.253906 -1.503906 1.285156 -1.488281 1.296875 -1.46875 C 1.304688 -0.96875 1.425781 -0.519531 1.65625 -0.125 C 1.882812 0.269531 2.179688 0.519531 2.546875 0.625 C 2.773438 0.695312 2.972656 0.691406 3.140625 0.609375 C 3.304688 0.523438 3.425781 0.359375 3.5 0.109375 C 3.601562 -0.234375 3.582031 -0.535156 3.4375 -0.796875 C 3.300781 -1.066406 3.066406 -1.367188 2.734375 -1.703125 C 2.484375 -1.960938 2.285156 -2.175781 2.140625 -2.34375 C 1.992188 -2.507812 1.882812 -2.707031 1.8125 -2.9375 C 1.75 -3.175781 1.757812 -3.441406 1.84375 -3.734375 C 2 -4.265625 2.304688 -4.601562 2.765625 -4.75 C 3.234375 -4.894531 3.742188 -4.882812 4.296875 -4.71875 C 4.648438 -4.613281 5 -4.429688 5.34375 -4.171875 C 5.414062 -4.109375 5.441406 -4.050781 5.421875 -4 C 5.359375 -3.78125 5.304688 -3.613281 5.265625 -3.5 L 5.046875 -2.828125 C 5.035156 -2.796875 5.003906 -2.785156 4.953125 -2.796875 C 4.898438 -2.816406 4.878906 -2.84375 4.890625 -2.875 C 4.953125 -3.0625 4.9375 -3.273438 4.84375 -3.515625 C 4.75 -3.753906 4.601562 -3.972656 4.40625 -4.171875 C 4.21875 -4.367188 4 -4.503906 3.75 -4.578125 C 3.332031 -4.703125 3.066406 -4.566406 2.953125 -4.171875 Z M 2.953125 -4.171875 "/></g></g></g><g fill="#ffe6a7" fill-opacity="1"><g transform="translate(133.895093, 80.89141)"><g/></g></g><g fill="#ffe6a7" fill-opacity="1"><g transform="translate(139.356977, 83.454364)"><g><path d="M 5.109375 2.171875 C 5.128906 2.179688 5.140625 2.207031 5.140625 2.25 C 5.140625 2.300781 5.125 2.332031 5.09375 2.34375 C 4.632812 2.425781 4.210938 2.429688 3.828125 2.359375 C 3.441406 2.296875 3.070312 2.148438 2.71875 1.921875 C 2.226562 1.609375 1.867188 1.226562 1.640625 0.78125 C 1.410156 0.332031 1.316406 -0.128906 1.359375 -0.609375 C 1.398438 -1.085938 1.550781 -1.535156 1.8125 -1.953125 C 2.113281 -2.421875 2.507812 -2.78125 3 -3.03125 C 3.488281 -3.289062 4.007812 -3.40625 4.5625 -3.375 C 5.125 -3.351562 5.65625 -3.179688 6.15625 -2.859375 C 6.65625 -2.546875 6.960938 -2.179688 7.078125 -1.765625 C 7.191406 -1.359375 7.101562 -0.925781 6.8125 -0.46875 C 6.664062 -0.238281 6.546875 -0.15625 6.453125 -0.21875 L 3.453125 -2.09375 C 3.398438 -2.019531 3.328125 -1.914062 3.234375 -1.78125 C 2.773438 -1.0625 2.578125 -0.390625 2.640625 0.234375 C 2.710938 0.867188 3.054688 1.382812 3.671875 1.78125 C 3.898438 1.925781 4.109375 2.019531 4.296875 2.0625 C 4.484375 2.113281 4.75 2.148438 5.09375 2.171875 Z M 5.59375 -2.90625 C 5.289062 -3.09375 4.96875 -3.128906 4.625 -3.015625 C 4.28125 -2.910156 3.945312 -2.664062 3.625 -2.28125 L 5.609375 -1.09375 C 6.128906 -1.957031 6.125 -2.5625 5.59375 -2.90625 Z M 5.59375 -2.90625 "/></g></g></g><g fill="#ffe6a7" fill-opacity="1"><g transform="translate(146.449454, 87.931996)"><g><path d="M 7.890625 7.53125 C 7.921875 7.5625 7.914062 7.597656 7.875 7.640625 C 7.832031 7.679688 7.796875 7.6875 7.765625 7.65625 C 7.585938 7.488281 7.453125 7.347656 7.359375 7.234375 L 6.78125 6.65625 L 6.1875 6.078125 C 6.070312 5.984375 5.929688 5.851562 5.765625 5.6875 C 5.742188 5.664062 5.753906 5.632812 5.796875 5.59375 C 5.835938 5.550781 5.867188 5.539062 5.890625 5.5625 C 6.117188 5.789062 6.320312 5.894531 6.5 5.875 C 6.675781 5.851562 6.898438 5.707031 7.171875 5.4375 L 8.6875 3.890625 C 9.0625 3.503906 9.273438 3.15625 9.328125 2.84375 C 9.378906 2.53125 9.265625 2.238281 8.984375 1.96875 C 8.804688 1.78125 8.578125 1.640625 8.296875 1.546875 C 8.023438 1.453125 7.75 1.410156 7.46875 1.421875 L 7.359375 1.53125 L 5.328125 3.609375 C 5.046875 3.890625 4.894531 4.113281 4.875 4.28125 C 4.851562 4.457031 4.960938 4.660156 5.203125 4.890625 C 5.222656 4.910156 5.210938 4.941406 5.171875 4.984375 C 5.128906 5.023438 5.097656 5.035156 5.078125 5.015625 C 4.910156 4.847656 4.78125 4.707031 4.6875 4.59375 L 4.078125 4 L 3.5 3.421875 C 3.382812 3.328125 3.238281 3.195312 3.0625 3.03125 C 3.039062 3.007812 3.050781 2.976562 3.09375 2.9375 C 3.132812 2.894531 3.164062 2.882812 3.1875 2.90625 C 3.425781 3.132812 3.628906 3.238281 3.796875 3.21875 C 3.972656 3.207031 4.203125 3.0625 4.484375 2.78125 L 6 1.234375 C 6.375 0.847656 6.585938 0.5 6.640625 0.1875 C 6.691406 -0.125 6.578125 -0.414062 6.296875 -0.6875 C 6.128906 -0.851562 5.914062 -0.988281 5.65625 -1.09375 C 5.394531 -1.195312 5.125 -1.238281 4.84375 -1.21875 L 2.671875 1 C 2.390625 1.28125 2.238281 1.503906 2.21875 1.671875 C 2.195312 1.835938 2.304688 2.035156 2.546875 2.265625 C 2.566406 2.285156 2.554688 2.316406 2.515625 2.359375 C 2.472656 2.398438 2.441406 2.410156 2.421875 2.390625 C 2.253906 2.222656 2.128906 2.085938 2.046875 1.984375 L 1.4375 1.390625 L 0.84375 0.796875 C 0.726562 0.710938 0.585938 0.585938 0.421875 0.421875 C 0.398438 0.398438 0.410156 0.367188 0.453125 0.328125 C 0.492188 0.285156 0.523438 0.273438 0.546875 0.296875 C 0.785156 0.523438 0.988281 0.628906 1.15625 0.609375 C 1.320312 0.585938 1.546875 0.4375 1.828125 0.15625 L 3.765625 -1.8125 C 3.984375 -2.039062 4.117188 -2.234375 4.171875 -2.390625 C 4.222656 -2.546875 4.191406 -2.679688 4.078125 -2.796875 C 3.972656 -2.898438 3.75 -3.015625 3.40625 -3.140625 L 3.390625 -3.15625 C 3.359375 -3.1875 3.351562 -3.222656 3.375 -3.265625 C 3.394531 -3.304688 3.421875 -3.320312 3.453125 -3.3125 L 5.453125 -2.640625 C 5.503906 -2.609375 5.535156 -2.585938 5.546875 -2.578125 C 5.617188 -2.503906 5.609375 -2.351562 5.515625 -2.125 C 5.429688 -1.90625 5.273438 -1.671875 5.046875 -1.421875 C 6.054688 -1.535156 6.832031 -1.328125 7.375 -0.796875 C 7.695312 -0.472656 7.878906 -0.140625 7.921875 0.203125 C 7.960938 0.546875 7.859375 0.882812 7.609375 1.21875 C 8.691406 1.101562 9.507812 1.316406 10.0625 1.859375 C 10.425781 2.222656 10.601562 2.609375 10.59375 3.015625 C 10.582031 3.421875 10.367188 3.832031 9.953125 4.25 L 8 6.25 C 7.71875 6.53125 7.570312 6.757812 7.5625 6.9375 C 7.550781 7.113281 7.660156 7.3125 7.890625 7.53125 Z M 7.890625 7.53125 "/></g></g></g><g fill="#ffe6a7" fill-opacity="1"><g transform="translate(77.38018, 145.51581)"><g><path d="M 11.328125 -3.0625 C 11.398438 -3.019531 11.398438 -2.96875 11.328125 -2.90625 C 10.617188 -2.1875 10.171875 -1.726562 9.984375 -1.53125 C 9.953125 -1.507812 9.914062 -1.515625 9.875 -1.546875 C 9.832031 -1.585938 9.828125 -1.617188 9.859375 -1.640625 C 10.140625 -2.078125 10.253906 -2.507812 10.203125 -2.9375 C 10.160156 -3.375 9.941406 -3.734375 9.546875 -4.015625 L 9.09375 -4.34375 C 8.851562 -4.507812 8.664062 -4.613281 8.53125 -4.65625 C 8.394531 -4.695312 8.265625 -4.6875 8.140625 -4.625 C 8.015625 -4.5625 7.851562 -4.429688 7.65625 -4.234375 L 5.375 -1.984375 L 6.59375 -1.109375 C 6.9375 -0.867188 7.242188 -0.75 7.515625 -0.75 C 7.796875 -0.757812 8.082031 -0.898438 8.375 -1.171875 C 8.394531 -1.203125 8.429688 -1.203125 8.484375 -1.171875 C 8.492188 -1.148438 8.503906 -1.125 8.515625 -1.09375 C 8.535156 -1.070312 8.535156 -1.054688 8.515625 -1.046875 C 8.296875 -0.828125 8.0625 -0.613281 7.8125 -0.40625 L 7.59375 -0.171875 L 6.578125 0.875 C 6.535156 0.894531 6.488281 0.890625 6.4375 0.859375 C 6.394531 0.828125 6.394531 0.796875 6.4375 0.765625 C 6.539062 0.640625 6.609375 0.550781 6.640625 0.5 C 6.992188 0.0078125 6.878906 -0.441406 6.296875 -0.859375 L 5.09375 -1.71875 L 2.828125 0.515625 C 2.710938 0.617188 2.625 0.71875 2.5625 0.8125 C 2.40625 1.019531 2.375 1.210938 2.46875 1.390625 C 2.5625 1.566406 2.816406 1.804688 3.234375 2.109375 C 3.253906 2.117188 3.25 2.144531 3.21875 2.1875 C 3.1875 2.238281 3.160156 2.257812 3.140625 2.25 C 2.953125 2.113281 2.796875 1.992188 2.671875 1.890625 L 1.4375 0.984375 L 0.71875 0.484375 C 0.582031 0.398438 0.398438 0.28125 0.171875 0.125 C 0.148438 0.101562 0.15625 0.0664062 0.1875 0.015625 C 0.21875 -0.0234375 0.242188 -0.0351562 0.265625 -0.015625 C 0.492188 0.148438 0.679688 0.253906 0.828125 0.296875 C 0.972656 0.347656 1.113281 0.335938 1.25 0.265625 C 1.394531 0.191406 1.570312 0.046875 1.78125 -0.171875 L 6.671875 -4.953125 C 6.835938 -5.128906 6.941406 -5.242188 6.984375 -5.296875 C 7.097656 -5.460938 7.125 -5.613281 7.0625 -5.75 C 7.007812 -5.882812 6.859375 -6.039062 6.609375 -6.21875 C 6.585938 -6.226562 6.59375 -6.253906 6.625 -6.296875 C 6.664062 -6.347656 6.695312 -6.367188 6.71875 -6.359375 Z M 11.328125 -3.0625 "/></g></g></g><g fill="#ffe6a7" fill-opacity="1"><g transform="translate(88.348268, 152.469256)"><g><path d="M 5.96875 1.234375 C 5.988281 1.242188 6.007812 1.253906 6.03125 1.265625 C 6.0625 1.273438 6.070312 1.296875 6.0625 1.328125 C 6.0625 1.367188 6.050781 1.394531 6.03125 1.40625 C 5.601562 1.632812 5.234375 1.785156 4.921875 1.859375 C 4.609375 1.929688 4.332031 1.914062 4.09375 1.8125 C 3.894531 1.726562 3.769531 1.609375 3.71875 1.453125 C 3.664062 1.296875 3.695312 1.085938 3.8125 0.828125 C 3.882812 0.648438 3.976562 0.46875 4.09375 0.28125 L 4.71875 -0.703125 C 4.050781 -0.0976562 3.382812 0.316406 2.71875 0.546875 C 2.050781 0.785156 1.484375 0.8125 1.015625 0.625 C 0.734375 0.507812 0.550781 0.335938 0.46875 0.109375 C 0.394531 -0.109375 0.429688 -0.394531 0.578125 -0.75 C 0.835938 -1.363281 1.304688 -1.945312 1.984375 -2.5 C 2.671875 -3.050781 3.398438 -3.445312 4.171875 -3.6875 C 4.953125 -3.9375 5.601562 -3.957031 6.125 -3.75 C 6.28125 -3.675781 6.429688 -3.578125 6.578125 -3.453125 C 6.734375 -3.328125 6.84375 -3.179688 6.90625 -3.015625 C 7.132812 -3.097656 7.328125 -3.195312 7.484375 -3.3125 C 7.515625 -3.3125 7.53125 -3.3125 7.53125 -3.3125 C 7.5625 -3.300781 7.585938 -3.28125 7.609375 -3.25 C 7.640625 -3.226562 7.648438 -3.222656 7.640625 -3.234375 L 5.109375 0.703125 C 5.015625 0.816406 4.953125 0.921875 4.921875 1.015625 C 4.867188 1.128906 4.847656 1.226562 4.859375 1.3125 C 4.878906 1.394531 4.914062 1.445312 4.96875 1.46875 C 5.144531 1.539062 5.476562 1.460938 5.96875 1.234375 Z M 2.109375 0.0625 C 2.441406 0.195312 2.851562 0.148438 3.34375 -0.078125 C 3.84375 -0.316406 4.316406 -0.640625 4.765625 -1.046875 C 5.210938 -1.460938 5.515625 -1.851562 5.671875 -2.21875 C 5.785156 -2.488281 5.804688 -2.726562 5.734375 -2.9375 C 5.660156 -3.15625 5.5 -3.3125 5.25 -3.40625 C 4.957031 -3.53125 4.628906 -3.535156 4.265625 -3.421875 C 3.898438 -3.304688 3.535156 -3.085938 3.171875 -2.765625 C 2.816406 -2.441406 2.503906 -2.054688 2.234375 -1.609375 C 2.097656 -1.390625 1.988281 -1.1875 1.90625 -1 C 1.675781 -0.4375 1.742188 -0.0820312 2.109375 0.0625 Z M 2.109375 0.0625 "/></g></g></g><g fill="#ffe6a7" fill-opacity="1"><g transform="translate(100.115827, 156.714743)"><g><path d="M 9.578125 0.15625 C 9.597656 0.144531 9.617188 0.144531 9.640625 0.15625 C 9.671875 0.15625 9.6875 0.171875 9.6875 0.203125 C 9.695312 0.234375 9.695312 0.265625 9.6875 0.296875 C 9.300781 0.628906 8.96875 0.867188 8.6875 1.015625 C 8.414062 1.160156 8.148438 1.21875 7.890625 1.1875 C 7.671875 1.15625 7.519531 1.070312 7.4375 0.9375 C 7.363281 0.800781 7.347656 0.597656 7.390625 0.328125 C 7.410156 0.140625 7.453125 -0.0664062 7.515625 -0.296875 L 8.265625 -2.53125 C 8.347656 -2.820312 8.398438 -3.046875 8.421875 -3.203125 C 8.484375 -3.703125 8.363281 -3.972656 8.0625 -4.015625 C 7.8125 -4.054688 7.519531 -3.925781 7.1875 -3.625 C 6.851562 -3.320312 6.515625 -2.851562 6.171875 -2.21875 C 5.828125 -1.59375 5.503906 -0.832031 5.203125 0.0625 L 5.046875 0.53125 C 5.003906 0.695312 4.765625 0.75 4.328125 0.6875 C 4.046875 0.65625 3.910156 0.609375 3.921875 0.546875 C 3.941406 0.484375 3.992188 0.335938 4.078125 0.109375 C 4.160156 -0.109375 4.226562 -0.3125 4.28125 -0.5 L 5.09375 -2.96875 C 5.175781 -3.25 5.226562 -3.46875 5.25 -3.625 C 5.3125 -4.132812 5.1875 -4.410156 4.875 -4.453125 C 4.613281 -4.484375 4.316406 -4.34375 3.984375 -4.03125 C 3.648438 -3.71875 3.3125 -3.242188 2.96875 -2.609375 C 2.625 -1.972656 2.3125 -1.210938 2.03125 -0.328125 L 1.875 0.109375 C 1.800781 0.265625 1.554688 0.316406 1.140625 0.265625 C 0.859375 0.222656 0.722656 0.171875 0.734375 0.109375 L 0.859375 -0.21875 L 1.078125 -0.90625 L 2.125 -4.078125 C 2.144531 -4.160156 2.164062 -4.269531 2.1875 -4.40625 C 2.21875 -4.6875 2.148438 -4.835938 1.984375 -4.859375 C 1.765625 -4.878906 1.445312 -4.710938 1.03125 -4.359375 C 1.019531 -4.347656 1.003906 -4.347656 0.984375 -4.359375 C 0.953125 -4.359375 0.925781 -4.375 0.90625 -4.40625 C 0.894531 -4.445312 0.898438 -4.476562 0.921875 -4.5 C 1.316406 -4.851562 1.660156 -5.101562 1.953125 -5.25 C 2.253906 -5.394531 2.539062 -5.445312 2.8125 -5.40625 C 3.03125 -5.382812 3.175781 -5.304688 3.25 -5.171875 C 3.332031 -5.035156 3.359375 -4.84375 3.328125 -4.59375 C 3.316406 -4.507812 3.273438 -4.332031 3.203125 -4.0625 L 2.796875 -2.765625 C 3.234375 -3.566406 3.695312 -4.171875 4.1875 -4.578125 C 4.675781 -4.984375 5.15625 -5.15625 5.625 -5.09375 C 6.238281 -5.007812 6.5 -4.585938 6.40625 -3.828125 C 6.363281 -3.566406 6.300781 -3.320312 6.21875 -3.09375 L 5.984375 -2.34375 C 6.441406 -3.144531 6.910156 -3.75 7.390625 -4.15625 C 7.867188 -4.5625 8.335938 -4.734375 8.796875 -4.671875 C 9.410156 -4.585938 9.671875 -4.171875 9.578125 -3.421875 C 9.546875 -3.191406 9.484375 -2.9375 9.390625 -2.65625 L 8.578125 -0.15625 C 8.523438 -0.0078125 8.492188 0.109375 8.484375 0.203125 C 8.453125 0.453125 8.519531 0.585938 8.6875 0.609375 C 8.851562 0.628906 9.148438 0.476562 9.578125 0.15625 Z M 9.578125 0.15625 "/></g></g></g><g fill="#ffe6a7" fill-opacity="1"><g transform="translate(115.921782, 157.785464)"><g><path d="M 1.46875 -7.046875 C 1.457031 -7.015625 1.425781 -7.003906 1.375 -7.015625 C 1.320312 -7.035156 1.296875 -7.054688 1.296875 -7.078125 L 2.15625 -10.65625 C 2.164062 -10.71875 2.289062 -10.785156 2.53125 -10.859375 C 2.769531 -10.929688 2.988281 -10.976562 3.1875 -11 C 3.25 -11 3.304688 -10.992188 3.359375 -10.984375 C 3.410156 -10.972656 3.429688 -10.957031 3.421875 -10.9375 Z M 1.578125 -0.03125 C 1.148438 0.0078125 0.910156 -0.21875 0.859375 -0.71875 C 0.835938 -0.90625 0.84375 -1.128906 0.875 -1.390625 L 1.1875 -4.453125 C 1.195312 -4.585938 1.195312 -4.707031 1.1875 -4.8125 C 1.164062 -5.070312 1.0625 -5.191406 0.875 -5.171875 C 0.644531 -5.148438 0.375 -4.925781 0.0625 -4.5 C 0.0507812 -4.488281 0.0351562 -4.484375 0.015625 -4.484375 C -0.0234375 -4.472656 -0.0546875 -4.484375 -0.078125 -4.515625 C -0.109375 -4.546875 -0.113281 -4.578125 -0.09375 -4.609375 C 0.21875 -5.023438 0.5 -5.335938 0.75 -5.546875 C 1.007812 -5.753906 1.269531 -5.875 1.53125 -5.90625 C 1.957031 -5.945312 2.191406 -5.738281 2.234375 -5.28125 C 2.242188 -5.132812 2.238281 -4.9375 2.21875 -4.6875 L 1.921875 -1.5 C 1.898438 -1.34375 1.894531 -1.21875 1.90625 -1.125 C 1.9375 -0.863281 2.035156 -0.742188 2.203125 -0.765625 C 2.367188 -0.773438 2.628906 -0.988281 2.984375 -1.40625 C 3.003906 -1.425781 3.023438 -1.4375 3.046875 -1.4375 C 3.078125 -1.445312 3.101562 -1.429688 3.125 -1.390625 C 3.144531 -1.359375 3.140625 -1.328125 3.109375 -1.296875 C 2.828125 -0.878906 2.5625 -0.566406 2.3125 -0.359375 C 2.070312 -0.160156 1.828125 -0.0507812 1.578125 -0.03125 Z M 1.578125 -0.03125 "/></g></g></g><g fill="#ffe6a7" fill-opacity="1"><g transform="translate(125.098168, 156.420448)"><g><path d="M 1.328125 -0.21875 C 1.117188 -0.164062 0.945312 -0.1875 0.8125 -0.28125 C 0.6875 -0.375 0.585938 -0.550781 0.515625 -0.8125 C 0.484375 -0.945312 0.445312 -1.160156 0.40625 -1.453125 L -0.1875 -8.96875 C -0.207031 -9.125 -0.234375 -9.257812 -0.265625 -9.375 C -0.335938 -9.632812 -0.460938 -9.742188 -0.640625 -9.703125 C -0.773438 -9.660156 -0.96875 -9.535156 -1.21875 -9.328125 L -1.25 -9.328125 C -1.289062 -9.316406 -1.320312 -9.332031 -1.34375 -9.375 C -1.363281 -9.414062 -1.351562 -9.445312 -1.3125 -9.46875 L 0.46875 -11.03125 L 0.5 -11.046875 C 0.53125 -11.054688 0.566406 -11.050781 0.609375 -11.03125 C 0.648438 -11.019531 0.664062 -11 0.65625 -10.96875 L 1.453125 -1.734375 C 1.460938 -1.585938 1.484375 -1.460938 1.515625 -1.359375 C 1.578125 -1.117188 1.679688 -1.019531 1.828125 -1.0625 C 2.003906 -1.113281 2.222656 -1.375 2.484375 -1.84375 C 2.503906 -1.84375 2.523438 -1.847656 2.546875 -1.859375 C 2.566406 -1.867188 2.585938 -1.863281 2.609375 -1.84375 C 2.640625 -1.820312 2.644531 -1.789062 2.625 -1.75 C 2.40625 -1.289062 2.195312 -0.9375 2 -0.6875 C 1.8125 -0.445312 1.585938 -0.289062 1.328125 -0.21875 Z M 1.328125 -0.21875 "/></g></g></g><g fill="#ffe6a7" fill-opacity="1"><g transform="translate(133.87782, 153.55962)"><g><path d="M -0.78125 -7.703125 C -1 -7.609375 -1.195312 -7.59375 -1.375 -7.65625 C -1.550781 -7.726562 -1.6875 -7.875 -1.78125 -8.09375 C -1.875 -8.28125 -1.882812 -8.460938 -1.8125 -8.640625 C -1.75 -8.816406 -1.613281 -8.953125 -1.40625 -9.046875 C -1.195312 -9.140625 -1.003906 -9.148438 -0.828125 -9.078125 C -0.660156 -9.015625 -0.53125 -8.890625 -0.4375 -8.703125 C -0.34375 -8.484375 -0.320312 -8.285156 -0.375 -8.109375 C -0.4375 -7.929688 -0.570312 -7.796875 -0.78125 -7.703125 Z M 1.46875 -0.546875 C 1.082031 -0.367188 0.785156 -0.503906 0.578125 -0.953125 C 0.503906 -1.128906 0.429688 -1.34375 0.359375 -1.59375 L -0.34375 -4.59375 C -0.382812 -4.726562 -0.425781 -4.84375 -0.46875 -4.9375 C -0.582031 -5.175781 -0.722656 -5.253906 -0.890625 -5.171875 C -1.097656 -5.078125 -1.273438 -4.773438 -1.421875 -4.265625 C -1.429688 -4.253906 -1.445312 -4.242188 -1.46875 -4.234375 C -1.5 -4.210938 -1.53125 -4.207031 -1.5625 -4.21875 C -1.601562 -4.238281 -1.617188 -4.269531 -1.609375 -4.3125 C -1.453125 -4.820312 -1.285156 -5.21875 -1.109375 -5.5 C -0.929688 -5.78125 -0.722656 -5.972656 -0.484375 -6.078125 C -0.0976562 -6.253906 0.1875 -6.132812 0.375 -5.71875 C 0.4375 -5.582031 0.492188 -5.394531 0.546875 -5.15625 L 1.328125 -2.03125 C 1.359375 -1.894531 1.394531 -1.785156 1.4375 -1.703125 C 1.539062 -1.460938 1.671875 -1.378906 1.828125 -1.453125 C 1.972656 -1.515625 2.148438 -1.800781 2.359375 -2.3125 C 2.378906 -2.332031 2.394531 -2.347656 2.40625 -2.359375 C 2.4375 -2.367188 2.460938 -2.359375 2.484375 -2.328125 C 2.515625 -2.304688 2.523438 -2.273438 2.515625 -2.234375 C 2.378906 -1.753906 2.226562 -1.378906 2.0625 -1.109375 C 1.90625 -0.835938 1.707031 -0.648438 1.46875 -0.546875 Z M 1.46875 -0.546875 "/></g></g></g><g fill="#ffe6a7" fill-opacity="1"><g transform="translate(142.235297, 149.241732)"><g><path d="M 4.203125 -4.421875 C 4.203125 -4.441406 4.207031 -4.457031 4.21875 -4.46875 C 4.25 -4.488281 4.28125 -4.484375 4.3125 -4.453125 C 4.34375 -4.429688 4.363281 -4.414062 4.375 -4.40625 C 4.332031 -3.914062 4.257812 -3.515625 4.15625 -3.203125 C 4.0625 -2.898438 3.910156 -2.675781 3.703125 -2.53125 C 3.523438 -2.40625 3.351562 -2.363281 3.1875 -2.40625 C 3.03125 -2.445312 2.867188 -2.582031 2.703125 -2.8125 C 2.585938 -2.96875 2.484375 -3.140625 2.390625 -3.328125 L 1.875 -4.390625 C 2.039062 -3.503906 2.046875 -2.710938 1.890625 -2.015625 C 1.742188 -1.328125 1.472656 -0.835938 1.078125 -0.546875 C 0.828125 -0.367188 0.582031 -0.300781 0.34375 -0.34375 C 0.113281 -0.394531 -0.109375 -0.570312 -0.328125 -0.875 C -0.722656 -1.414062 -0.972656 -2.125 -1.078125 -3 C -1.179688 -3.875 -1.132812 -4.707031 -0.9375 -5.5 C -0.75 -6.289062 -0.425781 -6.851562 0.03125 -7.1875 C 0.164062 -7.289062 0.328125 -7.367188 0.515625 -7.421875 C 0.710938 -7.472656 0.894531 -7.484375 1.0625 -7.453125 C 1.113281 -7.703125 1.128906 -7.921875 1.109375 -8.109375 C 1.117188 -8.128906 1.128906 -8.144531 1.140625 -8.15625 C 1.160156 -8.175781 1.1875 -8.1875 1.21875 -8.1875 C 1.25 -8.195312 1.265625 -8.195312 1.265625 -8.1875 L 3.265625 -3.96875 C 3.335938 -3.832031 3.398438 -3.726562 3.453125 -3.65625 C 3.523438 -3.550781 3.59375 -3.484375 3.65625 -3.453125 C 3.726562 -3.421875 3.789062 -3.421875 3.84375 -3.453125 C 4 -3.566406 4.117188 -3.890625 4.203125 -4.421875 Z M 1.171875 -1.765625 C 1.453125 -1.972656 1.625 -2.347656 1.6875 -2.890625 C 1.757812 -3.429688 1.738281 -4 1.625 -4.59375 C 1.507812 -5.195312 1.332031 -5.660156 1.09375 -5.984375 C 0.914062 -6.222656 0.71875 -6.363281 0.5 -6.40625 C 0.289062 -6.457031 0.078125 -6.40625 -0.140625 -6.25 C -0.390625 -6.070312 -0.5625 -5.796875 -0.65625 -5.421875 C -0.757812 -5.054688 -0.765625 -4.632812 -0.671875 -4.15625 C -0.585938 -3.6875 -0.425781 -3.21875 -0.1875 -2.75 C -0.0820312 -2.519531 0.03125 -2.320312 0.15625 -2.15625 C 0.507812 -1.664062 0.847656 -1.535156 1.171875 -1.765625 Z M 1.171875 -1.765625 "/></g></g></g></svg>